<svg viewBox="0 0 128 128" xmlns="http://www.w3.org/2000/svg">
    <g id="preloaderIcon" width="38" height="38" viewBox="0 0 38 38" xmlns="http://www.w3.org/2000/svg" stroke="#fff">
        <g fill="none" fill-rule="evenodd">
            <g transform="translate(1 1)" stroke-width="2">
                <circle stroke-opacity=".5" cx="18" cy="18" r="18"/>
                <path d="M36 18c0-9.94-8.06-18-18-18">
                    <animateTransform
                        attributeName="transform"
                        type="rotate"
                        from="0 18 18"
                        to="360 18 18"
                        dur="1s"
                        repeatCount="indefinite"/>
                </path>
            </g>
        </g>
    </g>

    <g id="logoIcon" viewBox="0 0 128 128" xml:space="preserve" fill-rule="evenodd" clip-rule="evenodd" stroke-linejoin="round" stroke-miterlimit="2" width="128" height="128">
        <path fill="#b2e7f2" d="M12.93 58.89h102.14v10.22H12.93z"/>
        <path d="M75.88 24.91 114.97 64l-39.09 39.09v13.03L128 64 75.88 11.88v13.03ZM52.12 24.91 13.03 64l39.09 39.09v13.03L0 64l52.12-52.12v13.03Z" fill="#13add0"/>
        <path d="M80.27 2.65H69.36l-21.64 122.7h10.9L80.28 2.65Z" fill="#13add0"/>
    </g>

    <g id="lineFacebook" viewBox="0 0 24 24">
        <path fill="none" d="M0 0h24v24H0z"/>
        <path d="M13 19.94A8 8 0 0 0 12 4a8 8 0 0 0-1 15.94V14H9v-2h2v-1.65c0-1.34.14-1.83.4-2.31a2.73 2.73 0 0 1 1.14-1.14c.38-.2.85-.33 1.68-.38.33-.02.76 0 1.28.08v1.9H15c-.92 0-1.3.04-1.52.16a.73.73 0 0 0-.32.32c-.12.22-.16.45-.16 1.36V12h2.5l-.5 2h-2v5.94zM12 22a10 10 0 1 1 0-20 10 10 0 0 1 0 20z"/>
    </g>

    <g id="lineLinkedin" viewBox="0 0 24 24">
        <path fill="none" d="M0 0h24v24H0z"/>
        <path d="M4 3h16a1 1 0 0 1 1 1v16a1 1 0 0 1-1 1H4a1 1 0 0 1-1-1V4a1 1 0 0 1 1-1zm1 2v14h14V5H5zm2.5 4a1.5 1.5 0 1 1 0-3 1.5 1.5 0 0 1 0 3zm-1 1h2v7.5h-2V10zm5.5.43a2.92 2.92 0 0 1 2-.93c2.07 0 3.5 1.68 3.5 3.75v4.25h-2v-4.25a1.75 1.75 0 0 0-3.5 0v4.25h-2V10h2v.43z"/>
    </g>



    <g id="lineGithub" viewBox="0 0 24 24">
        <path fill="none" d="M0 0h24v24H0z"/>
        <path d="M5.88 18.65c-.3-.2-.55-.45-.86-.81a50.32 50.32 0 0 1-.46-.58c-.47-.58-.76-.84-1.06-.95a1 1 0 0 1 .68-1.88c.75.27 1.26.73 1.94 1.58l.44.54c.19.23.33.37.44.44.2.14.58.2 1.15.14.02-.38.09-.75.2-1.1-2.97-.72-4.65-2.63-4.65-6.39 0-1.24.37-2.36 1.06-3.3-.22-.89-.19-1.97.3-3.18a1 1 0 0 1 .63-.59l.2-.04c.81-.13 1.95.17 3.42 1.1A11.73 11.73 0 0 1 12 3.31c.91 0 1.82.1 2.68.3 1.48-.93 2.62-1.22 3.43-1.1l.21.06a1 1 0 0 1 .62.58c.49 1.21.52 2.3.3 3.19.7.93 1.06 2.04 1.06 3.29 0 3.76-1.67 5.67-4.64 6.4.12.4.19.87.19 1.37a300.5 300.5 0 0 1-.01 2.72 1 1 0 0 1-.02 1.96c-1.14.22-1.99-.54-1.99-1.53v-.44l.01-.71v-2c0-.7-.17-1.15-.42-1.36a1 1 0 0 1 .54-1.75c2.97-.33 4.34-1.48 4.34-4.66 0-.96-.31-1.74-.91-2.4a1 1 0 0 1-.2-1.05c.17-.41.24-.96.1-1.61-.5.14-1.12.44-1.87.95a1 1 0 0 1-.83.13A9.63 9.63 0 0 0 12 5.32c-.89 0-1.77.11-2.6.35a1 1 0 0 1-.82-.14c-.75-.5-1.38-.8-1.87-.95-.14.66-.07 1.2.1 1.61a1 1 0 0 1-.2 1.05c-.6.65-.91 1.45-.91 2.4 0 3.17 1.37 4.33 4.32 4.66a1 1 0 0 1 .55 1.75c-.2.17-.43.73-.43 1.36v3.15c0 .99-.84 1.73-1.96 1.53a1 1 0 0 1-.04-1.96v-1a3.52 3.52 0 0 1-2.26-.48z"/>
    </g>

    <g id="lineEmail" viewBox="0 0 24 24">
        <path fill="none" d="M0 0h24v24H0z"/>
        <path d="M3 3h18a1 1 0 0 1 1 1v16a1 1 0 0 1-1 1H3a1 1 0 0 1-1-1V4a1 1 0 0 1 1-1zm17 4.24-7.93 7.1L4 7.22V19h16V7.24zM4.51 5l7.55 6.66L19.5 5H4.51z"/>
    </g>

    <g id="chevronLeft" fill="none" stroke="currentColor" stroke-width="2" stroke-linecap="round" stroke-linejoin="round" class="feather feather-chevron-left" viewBox="0 0 24 24">
        <path d="m15 18-6-6 6-6"/>
    </g>

    <g id="chevronLeft" fill="none" stroke="currentColor" stroke-width="2" stroke-linecap="round" stroke-linejoin="round" class="feather feather-chevron-right" viewBox="0 0 24 24">
        <path d="m9 18 6-6-6-6"/>
    </g>

    <g id="chevronUp" fill="none" stroke="currentColor" stroke-width="2" stroke-linecap="round" stroke-linejoin="round" class="feather feather-chevron-up" viewBox="0 0 24 24">
        <path d="m18 15-6-6-6 6"/>
    </g>

    <g id="gift" fill="none" stroke="currentColor" stroke-width="2" stroke-linecap="round" stroke-linejoin="round" class="feather feather-gift" viewBox="0 0 24 24">
        <path d="M20 12v10H4V12M2 7h20v5H2zM12 22V7M12 7H7.5a2.5 2.5 0 0 1 0-5C11 2 12 7 12 7zM12 7h4.5a2.5 2.5 0 0 0 0-5C13 2 12 7 12 7z"/>
    </g>

    <g id="quote" viewBox="0 0 24 24">
        <path d="M9.983 3v7.391c0 5.704-3.731 9.57-8.983 10.609l-.995-2.151c2.432-.917 3.995-3.638 3.995-5.849h-4v-10h9.983zm14.017 0v7.391c0 5.704-3.748 9.571-9 10.609l-.996-2.151c2.433-.917 3.996-3.638 3.996-5.849h-3.983v-10h9.983z" fill="currentColor"/>
    </g>

    <g id="close" fill="none" stroke="currentColor" stroke-width="2" stroke-linecap="round" stroke-linejoin="round" class="feather feather-x" viewBox="0 0 24 24">
        <path d="M18 6 6 18M6 6l12 12"/>
    </g>

    <!-- Skills - Start -->

    <g id="html5" viewBox="0 0 24 24" xmlns="http://www.w3.org/2000/svg">
        <path d="M1.5 0h21l-1.91 21.563L11.977 24l-8.564-2.438L1.5 0zm7.031 9.75-.232-2.718 10.059.003.23-2.622L5.412 4.41l.698 8.01h9.126l-.326 3.426-2.91.804-2.955-.81-.188-2.11H6.248l.33 4.171L12 19.351l5.379-1.443.744-8.157H8.531z"/>
    </g>

    <g id="css3" viewBox="0 0 24 24" xmlns="http://www.w3.org/2000/svg">
        <path d="M1.5 0h21l-1.91 21.563L11.977 24l-8.565-2.438L1.5 0zm17.09 4.413L5.41 4.41l.213 2.622 10.125.002-.255 2.716h-6.64l.24 2.573h6.182l-.366 3.523-2.91.804-2.956-.81-.188-2.11h-2.61l.29 3.855L12 19.288l5.373-1.53L18.59 4.414z"/>
    </g>

    <g id="js" xmlns="http://www.w3.org/2000/svg" viewBox="0 0 24 24">
        <path d="M0 0h24v24H0V0zm22.034 18.276c-.175-1.095-.888-2.015-3.003-2.873-.736-.345-1.554-.585-1.797-1.14-.091-.33-.105-.51-.046-.705.15-.646.915-.84 1.515-.66.39.12.75.42.976.9 1.034-.676 1.034-.676 1.755-1.125-.27-.42-.404-.601-.586-.78-.63-.705-1.469-1.065-2.834-1.034l-.705.089c-.676.165-1.32.525-1.71 1.005-1.14 1.291-.811 3.541.569 4.471 1.365 1.02 3.361 1.244 3.616 2.205.24 1.17-.87 1.545-1.966 1.41-.811-.18-1.26-.586-1.755-1.336l-1.83 1.051c.21.48.45.689.81 1.109 1.74 1.756 6.09 1.666 6.871-1.004.029-.09.24-.705.074-1.65l.046.067zm-8.983-7.245h-2.248c0 1.938-.009 3.864-.009 5.805 0 1.232.063 2.363-.138 2.711-.33.689-1.18.601-1.566.48-.396-.196-.597-.466-.83-.855-.063-.105-.11-.196-.127-.196l-1.825 1.125c.305.63.75 1.172 1.324 1.517.855.51 2.004.675 3.207.405.783-.226 1.458-.691 1.811-1.411.51-.93.402-2.07.397-3.346.012-2.054 0-4.109 0-6.179l.004-.056z"/>
    </g>

    <g id="vsCode" xmlns="http://www.w3.org/2000/svg" viewBox="0 0 24 24">
        <path d="M23.15 2.587 18.21.21a1.494 1.494 0 0 0-1.705.29l-9.46 8.63-4.12-3.128a.999.999 0 0 0-1.276.057L.327 7.261A1 1 0 0 0 .326 8.74L3.899 12 .326 15.26a1 1 0 0 0 .001 1.479L1.65 17.94a.999.999 0 0 0 1.276.057l4.12-3.128 9.46 8.63a1.492 1.492 0 0 0 1.704.29l4.942-2.377A1.5 1.5 0 0 0 24 20.06V3.939a1.5 1.5 0 0 0-.85-1.352zm-5.146 14.861L10.826 12l7.178-5.448v10.896z"/>
    </g>

    <g id="bootstrap" xmlns="http://www.w3.org/2000/svg" viewBox="0 0 24 24">
        <path d="M11.77 11.24H9.956V8.202h2.152c1.17 0 1.834.522 1.834 1.466 0 1.008-.773 1.572-2.174 1.572zm.324 1.206H9.957v3.348h2.231c1.459 0 2.232-.585 2.232-1.685s-.795-1.663-2.326-1.663zM24 11.39v1.218c-1.128.108-1.817.944-2.226 2.268-.407 1.319-.463 2.937-.42 4.186.045 1.3-.968 2.5-2.337 2.5H4.985c-1.37 0-2.383-1.2-2.337-2.5.043-1.249-.013-2.867-.42-4.186-.41-1.324-1.1-2.16-2.228-2.268V11.39c1.128-.108 1.819-.944 2.227-2.268.408-1.319.464-2.937.42-4.186-.045-1.3.968-2.5 2.338-2.5h14.032c1.37 0 2.382 1.2 2.337 2.5-.043 1.249.013 2.867.42 4.186.409 1.324 1.098 2.16 2.226 2.268zm-7.927 2.817c0-1.354-.953-2.333-2.368-2.488v-.057c1.04-.169 1.856-1.135 1.856-2.213 0-1.537-1.213-2.538-3.062-2.538h-4.16v10.172h4.181c2.218 0 3.553-1.086 3.553-2.876z"/>
    </g>

    <g id="tailwind" xmlns="http://www.w3.org/2000/svg" viewBox="0 0 24 24">
        <path d="M12.001 4.8c-3.2 0-5.2 1.6-6 4.8 1.2-1.6 2.6-2.2 4.2-1.8.913.228 1.565.89 2.288 1.624C13.666 10.618 15.027 12 18.001 12c3.2 0 5.2-1.6 6-4.8-1.2 1.6-2.6 2.2-4.2 1.8-.913-.228-1.565-.89-2.288-1.624C16.337 6.182 14.976 4.8 12.001 4.8zm-6 7.2c-3.2 0-5.2 1.6-6 4.8 1.2-1.6 2.6-2.2 4.2-1.8.913.228 1.565.89 2.288 1.624 1.177 1.194 2.538 2.576 5.512 2.576 3.2 0 5.2-1.6 6-4.8-1.2 1.6-2.6 2.2-4.2 1.8-.913-.228-1.565-.89-2.288-1.624C10.337 13.382 8.976 12 6.001 12z"/>
    </g>

    <g id="bulma" xmlns="http://www.w3.org/2000/svg" viewBox="0 0 24 24">
        <path d="m11.25 0-6 6-1.5 10.5 7.5 7.5 9-6-6-6 4.5-4.5-7.5-7.5Z"/>
    </g>

    <g id="fontAwesome" xmlns="http://www.w3.org/2000/svg" viewBox="0 0 24 24">
        <path d="M24 .857v18c-3.375 1.232-4.393 1.714-6.375 1.714-3.375 0-4.66-1.714-8.036-1.714-1.071 0-1.928.214-2.732.429v-3.429c.804-.214 1.661-.428 2.732-.428 3.375 0 4.661 1.714 8.036 1.714 1.071 0 1.875-.16 2.946-.482V5.518C19.5 5.839 18.696 6 17.625 6c-3.375 0-4.66-1.714-8.036-1.714-2.732 0-4.017 1.125-6.16 1.553v16.447A1.693 1.693 0 0 1 1.714 24 1.693 1.693 0 0 1 0 22.286V1.714A1.693 1.693 0 0 1 1.714 0 1.693 1.693 0 0 1 3.43 1.714v.697C5.572 1.982 6.857.857 9.589.857c3.375 0 4.661 1.715 8.036 1.715 1.982 0 3-.483 6.375-1.715Z"/>
    </g>


    <g id="googleFonts" xmlns="http://www.w3.org/2000/svg" viewBox="0 0 24 24">
        <path d="M4 2.8A3.6 3.6 0 1 0 4 10a3.6 3.6 0 0 0 0-7.2zm7.6 0v18.4h7.2a5.2 5.2 0 1 1 0-10.4 4 4 0 1 1 0-8zm7.2 0v8a4 4 0 1 0 0-8zm0 8v10.4A5.2 5.2 0 0 0 24 16a5.2 5.2 0 0 0-5.2-5.2zm-7.7-7.206L0 21.199h8.8l2.3-3.64Z"/>
    </g>

    <g id="affinityDesigner" xmlns="http://www.w3.org/2000/svg" viewBox="0 0 24 24">
        <path d="M10.44 0 0 18.083v5.197a.72.72 0 0 0 .713.72h10.023L5.7 15.277 14.52 0zm5.16 0-4.86 8.418 3.718 6.439H24V.718A.72.72 0 0 0 23.28 0zm-5.4 9.353-2.064 3.575a1.289 1.289 0 0 0 0 1.288c.23.4.656.64 1.117.64h4.125zm-3.122 6.44L11.816 24h11.471a.72.72 0 0 0 .713-.718v-7.49Z"/>
    </g>

    <g id="affinityPhoto" xmlns="http://www.w3.org/2000/svg" viewBox="0 0 24 24">
        <path d="m10.44 0-.48.831 5.88 10.185L22.2 0zm12.84 0-8.577 14.856H24V.711A.72.72 0 0 0 23.28 0zM9.42 1.767 5.76 8.106h7.32zm1.563 7.257h-.018c-.36.005-.7.216-.879.523l-1.083 1.88-.008.014a1.052 1.052 0 0 0 0 1.02 16710.388 16710.388 0 0 0 1.093 1.894c.184.31.53.5.885.501.002 0 1.38.002 2.067-.001.36-.005.699-.205.878-.512.364-.631.731-1.261 1.093-1.894.176-.314.17-.703-.007-1.011l-.01-.015-1.078-1.87-.006-.009a1.053 1.053 0 0 0-.879-.52h-.012zM5.22 9.04 0 18.082v.39l.003 4.871a.72.72 0 0 0 .662.655L9.3 9.04zm2.94 3.845L1.736 24h12.84zm2.757 2.906L15.657 24h7.623a.72.72 0 0 0 .72-.72v-7.488Z"/>
    </g>

    <g id="adobePhotoshop" xmlns="http://www.w3.org/2000/svg" viewBox="0 0 24 24">
        <path d="M9.85 8.42c-.37-.15-.77-.21-1.18-.2-.26 0-.49 0-.68.01-.2-.01-.34 0-.41.01v3.36c.14.01.27.02.39.02h.53c.39 0 .78-.06 1.15-.18.32-.09.6-.28.82-.53.21-.25.31-.59.31-1.03.01-.31-.07-.62-.23-.89a1.45 1.45 0 0 0-.7-.57zM19.75.3H4.25C1.9.3 0 2.2 0 4.55v14.899c0 2.35 1.9 4.25 4.25 4.25h15.5c2.35 0 4.25-1.9 4.25-4.25V4.55C24 2.2 22.1.3 19.75.3zm-7.391 11.65c-.399.56-.959.98-1.609 1.22-.68.25-1.43.34-2.25.34-.24 0-.4 0-.5-.01s-.24-.01-.43-.01v3.209c.01.07-.04.131-.11.141H5.52c-.08 0-.12-.041-.12-.131V6.42c0-.07.03-.11.1-.11.17 0 .33 0 .56-.01.24-.01.49-.01.76-.02s.56-.01.87-.02c.31-.01.61-.01.91-.01.82 0 1.5.1 2.06.31.5.17.96.45 1.34.82.32.32.57.71.73 1.14.149.42.229.85.229 1.3.001.86-.199 1.57-.6 2.13zm7.091 3.89c-.28.4-.671.709-1.12.891-.49.209-1.09.318-1.811.318-.459 0-.91-.039-1.359-.129-.35-.061-.7-.17-1.02-.32-.07-.039-.121-.109-.111-.189v-1.74c0-.029.011-.07.041-.09.029-.02.06-.01.09.01.39.23.8.391 1.24.49.379.1.779.15 1.18.15.38 0 .65-.051.83-.141.16-.07.27-.24.27-.42 0-.141-.08-.27-.24-.4-.16-.129-.489-.279-.979-.471-.51-.18-.979-.42-1.42-.719a2.625 2.625 0 0 1-.761-.85 2.158 2.158 0 0 1-.229-1.021c0-.43.12-.84.341-1.21.25-.4.619-.72 1.049-.92.469-.239 1.059-.349 1.769-.349.41 0 .83.03 1.24.09.3.04.59.12.86.23.039.01.08.05.1.09.01.04.02.08.02.12v1.63c0 .04-.02.08-.05.1-.09.02-.14.02-.18 0-.3-.16-.62-.27-.96-.34-.37-.08-.74-.13-1.12-.13-.2-.01-.41.02-.601.07-.129.03-.24.1-.31.2-.05.08-.08.18-.08.27s.04.18.101.26c.09.11.209.2.34.27.229.12.47.23.709.33.541.18 1.061.43 1.541.73.33.209.6.49.789.83.16.318.24.67.23 1.029.011.471-.129.94-.389 1.331z"/>
    </g>

    <g id="adobeIllustrator" xmlns="http://www.w3.org/2000/svg" viewBox="0 0 24 24">
        <path d="M10.53 10.73c-.1-.31-.19-.61-.29-.92-.1-.31-.19-.6-.27-.89-.08-.28-.15-.54-.22-.78h-.02c-.09.43-.2.86-.34 1.29-.15.48-.3.98-.46 1.48-.14.51-.29.98-.44 1.4h2.54c-.06-.211-.14-.46-.23-.721-.09-.269-.18-.559-.27-.859zM19.75.3H4.25C1.9.3 0 2.2 0 4.55v14.9c0 2.35 1.9 4.25 4.25 4.25h15.5c2.35 0 4.25-1.9 4.25-4.25V4.55C24 2.2 22.1.3 19.75.3zM14.7 16.83h-2.091c-.069.01-.139-.04-.159-.11l-.82-2.38H7.91l-.76 2.35c-.02.09-.1.15-.19.141H5.08c-.11 0-.14-.061-.11-.18L8.19 7.38c.03-.1.06-.21.1-.33.04-.21.06-.43.06-.65-.01-.05.03-.1.08-.11h2.59c.08 0 .12.03.13.08l3.65 10.3c.03.109 0 .16-.1.16zm3.4-.15c0 .11-.039.16-.129.16H16.01c-.1 0-.15-.061-.15-.16v-7.7c0-.1.041-.14.131-.14h1.98c.09 0 .129.05.129.14v7.7zm-.209-9.03a1.18 1.18 0 0 1-.911.35c-.33.01-.65-.12-.891-.35a1.3 1.3 0 0 1-.34-.92c-.01-.34.12-.66.359-.89.242-.23.562-.35.892-.35.391 0 .689.12.91.35.22.24.34.56.33.89.01.34-.11.67-.349.92z"/>
    </g>

    <g id="adobeXD" xmlns="http://www.w3.org/2000/svg" viewBox="0 0 24 24">
        <path d="M18.835.3H5.165A5.165 5.165 0 0 0 0 5.465v13.07A5.165 5.165 0 0 0 5.165 23.7h13.67A5.165 5.165 0 0 0 24 18.535V5.465A5.165 5.165 0 0 0 18.835.3zm-6.106 16.491h-2.287c-.16 0-.274-.006-.338-.113-.215-.419-.43-.835-.644-1.248a45.137 45.137 0 0 0-.684-1.264 66.961 66.961 0 0 1-.717-1.305h-.016a52.7 52.7 0 0 1-.668 1.288c-.23.429-.459.856-.684 1.28A54.85 54.85 0 0 1 6 16.693c-.044.097-.119.107-.227.107H3.568c-.043 0-.067.017-.072-.026a.166.166 0 0 1 .024-.113l3.107-5.105L3.6 6.438c-.033-.043-.038-.078-.016-.107a.115.115 0 0 1 .097-.04h2.27a.36.36 0 0 1 .145.024.292.292 0 0 1 .096.089c.193.43.408.859.644 1.288.236.429.475.853.716 1.272.241.419.464.843.668 1.272h.016c.213-.44.43-.869.652-1.288.222-.419.447-.84.676-1.264.231-.425.453-.847.668-1.264a.246.246 0 0 1 .064-.106.239.239 0 0 1 .129-.024h2.109a.093.093 0 0 1 .112.067.093.093 0 0 1-.031.094l.001.004-2.995 4.943 3.204 5.249c.021.037.026.08.016.121-.01.036-.047.012-.112.023zm7.681-.42a8.02 8.02 0 0 1-1.626.483 8.63 8.63 0 0 1-1.547.145 5.006 5.006 0 0 1-2.149-.45 3.421 3.421 0 0 1-1.506-1.361 4.348 4.348 0 0 1-.548-2.278 4.202 4.202 0 0 1 .548-2.109 4.018 4.018 0 0 1 1.595-1.545 5.139 5.139 0 0 1 2.737-.572c.086.005.188.013.306.024V5.536c0-.075.032-.113.097-.113h2.028a.086.086 0 0 1 .097.073.096.096 0 0 1 0 .024v9.517c0 .183.008.381.024.596.016.214.03.407.04.579a.163.163 0 0 1-.096.159zm-2.457-5.812c.09.009.179.025.266.048v4.395a1.634 1.634 0 0 1-.354.064 4.965 4.965 0 0 1-.419.016 2.656 2.656 0 0 1-.83-.129 1.714 1.714 0 0 1-.676-.402 1.973 1.973 0 0 1-.451-.708 2.83 2.83 0 0 1-.169-1.031 2.217 2.217 0 0 1 .33-1.272c.213-.316.504-.571.845-.741.35-.173.736-.262 1.127-.258.111.002.221.007.331.018z"/>
    </g>

    <g id="git" xmlns="http://www.w3.org/2000/svg" viewBox="0 0 24 24">
        <path d="M23.546 10.93 13.067.452a1.55 1.55 0 0 0-2.188 0L8.708 2.627l2.76 2.76a1.838 1.838 0 0 1 2.327 2.341l2.658 2.66a1.838 1.838 0 0 1 1.9 3.039 1.837 1.837 0 0 1-2.6 0 1.846 1.846 0 0 1-.404-1.996L12.86 8.955v6.525c.176.086.342.203.488.348a1.848 1.848 0 0 1 0 2.6 1.844 1.844 0 0 1-2.609 0 1.834 1.834 0 0 1 0-2.598c.182-.18.387-.316.605-.406V8.835a1.834 1.834 0 0 1-.996-2.41L7.636 3.7.45 10.881c-.6.605-.6 1.584 0 2.189l10.48 10.477a1.545 1.545 0 0 0 2.186 0l10.43-10.43a1.544 1.544 0 0 0 0-2.187"/>
    </g>

    <g id="github" xmlns="http://www.w3.org/2000/svg" viewBox="0 0 24 24">
        <path d="M12 .297c-6.63 0-12 5.373-12 12 0 5.303 3.438 9.8 8.205 11.385.6.113.82-.258.82-.577 0-.285-.01-1.04-.015-2.04-3.338.724-4.042-1.61-4.042-1.61C4.422 18.07 3.633 17.7 3.633 17.7c-1.087-.744.084-.729.084-.729 1.205.084 1.838 1.236 1.838 1.236 1.07 1.835 2.809 1.305 3.495.998.108-.776.417-1.305.76-1.605-2.665-.3-5.466-1.332-5.466-5.93 0-1.31.465-2.38 1.235-3.22-.135-.303-.54-1.523.105-3.176 0 0 1.005-.322 3.3 1.23.96-.267 1.98-.399 3-.405 1.02.006 2.04.138 3 .405 2.28-1.552 3.285-1.23 3.285-1.23.645 1.653.24 2.873.12 3.176.765.84 1.23 1.91 1.23 3.22 0 4.61-2.805 5.625-5.475 5.92.42.36.81 1.096.81 2.22 0 1.606-.015 2.896-.015 3.286 0 .315.21.69.825.57C20.565 22.092 24 17.592 24 12.297c0-6.627-5.373-12-12-12"/>
    </g>

    <g id="firefox" xmlns="http://www.w3.org/2000/svg" viewBox="0 0 24 24">
        <path d="M8.824 7.287c.008 0 .004 0 0 0zm-2.8-1.4c.006 0 .003 0 0 0zm16.754 2.161c-.505-1.215-1.53-2.528-2.333-2.943.654 1.283 1.033 2.57 1.177 3.53l.002.02c-1.314-3.278-3.544-4.6-5.366-7.477-.091-.147-.184-.292-.273-.446a3.545 3.545 0 0 1-.13-.24 2.118 2.118 0 0 1-.172-.46.03.03 0 0 0-.027-.03.038.038 0 0 0-.021 0l-.006.001a.037.037 0 0 0-.01.005L15.624 0c-2.585 1.515-3.657 4.168-3.932 5.856a6.197 6.197 0 0 0-2.305.587.297.297 0 0 0-.147.37c.057.162.24.24.396.17a5.622 5.622 0 0 1 2.008-.523l.067-.005a5.847 5.847 0 0 1 1.957.222l.095.03a5.816 5.816 0 0 1 .616.228c.08.036.16.073.238.112l.107.055a5.835 5.835 0 0 1 .368.211 5.953 5.953 0 0 1 2.034 2.104c-.62-.437-1.733-.868-2.803-.681 4.183 2.09 3.06 9.292-2.737 9.02a5.164 5.164 0 0 1-1.513-.292 4.42 4.42 0 0 1-.538-.232c-1.42-.735-2.593-2.121-2.74-3.806 0 0 .537-2 3.845-2 .357 0 1.38-.998 1.398-1.287-.005-.095-2.029-.9-2.817-1.677-.422-.416-.622-.616-.8-.767a3.47 3.47 0 0 0-.301-.227 5.388 5.388 0 0 1-.032-2.842c-1.195.544-2.124 1.403-2.8 2.163h-.006c-.46-.584-.428-2.51-.402-2.913-.006-.025-.343.176-.389.206a8.43 8.43 0 0 0-1.136.974c-.397.403-.76.839-1.085 1.303a9.816 9.816 0 0 0-1.562 3.52c-.003.013-.11.487-.19 1.073-.013.09-.026.181-.037.272a7.8 7.8 0 0 0-.069.667l-.002.034-.023.387-.001.06C.386 18.795 5.593 24 12.016 24c5.752 0 10.527-4.176 11.463-9.661.02-.149.035-.298.052-.448.232-1.994-.025-4.09-.753-5.844z"/>
    </g>

    <g id="googleChrome" xmlns="http://www.w3.org/2000/svg" viewBox="0 0 24 24">
        <path d="M12 0C8.21 0 4.831 1.757 2.632 4.501l3.953 6.848A5.454 5.454 0 0 1 12 6.545h10.691A12 12 0 0 0 12 0zM1.931 5.47A11.943 11.943 0 0 0 0 12c0 6.012 4.42 10.991 10.189 11.864l3.953-6.847a5.45 5.45 0 0 1-6.865-2.29zm13.342 2.166a5.446 5.446 0 0 1 1.45 7.09l.002.001h-.002l-5.344 9.257c.206.01.413.016.621.016 6.627 0 12-5.373 12-12 0-1.54-.29-3.011-.818-4.364zM12 16.364a4.364 4.364 0 1 1 0-8.728 4.364 4.364 0 0 1 0 8.728Z"/>
    </g>

    <g id="microsoftEdge" xmlns="http://www.w3.org/2000/svg" viewBox="0 0 24 24">
        <path d="M21.86 17.86q.14 0 .25.12.1.13.1.25t-.11.33l-.32.46-.43.53-.44.5q-.21.25-.38.42l-.22.23q-.58.53-1.34 1.04-.76.51-1.6.91-.86.4-1.74.64t-1.67.24q-.9 0-1.69-.28-.8-.28-1.48-.78-.68-.5-1.22-1.17-.53-.66-.92-1.44-.38-.77-.58-1.6-.2-.83-.2-1.67 0-1 .32-1.96.33-.97.87-1.8.14.95.55 1.77.41.82 1.02 1.5.6.68 1.38 1.21.78.54 1.64.9.86.36 1.77.56.92.2 1.8.2 1.12 0 2.18-.24 1.06-.23 2.06-.72l.2-.1.2-.05zm-15.5-1.27q0 1.1.27 2.15.27 1.06.78 2.03.51.96 1.24 1.77.74.82 1.66 1.4-1.47-.2-2.8-.74-1.33-.55-2.48-1.37-1.15-.83-2.08-1.9-.92-1.07-1.58-2.33T.36 14.94Q0 13.54 0 12.06q0-.81.32-1.49.31-.68.83-1.23.53-.55 1.2-.96.66-.4 1.35-.66.74-.27 1.5-.39.78-.12 1.55-.12.7 0 1.42.1.72.12 1.4.35.68.23 1.32.57.63.35 1.16.83-.35 0-.7.07-.33.07-.65.23v-.02q-.63.28-1.2.74-.57.46-1.05 1.04-.48.58-.87 1.26-.38.67-.65 1.39-.27.71-.42 1.44-.15.72-.15 1.38zM11.96.06q1.7 0 3.33.39 1.63.38 3.07 1.15 1.43.77 2.62 1.93 1.18 1.16 1.98 2.7.49.94.76 1.96.28 1 .28 2.08 0 .89-.23 1.7-.24.8-.69 1.48-.45.68-1.1 1.22-.64.53-1.45.88-.54.24-1.11.36-.58.13-1.16.13-.42 0-.97-.03-.54-.03-1.1-.12-.55-.1-1.05-.28-.5-.19-.84-.5-.12-.09-.23-.24-.1-.16-.1-.33 0-.15.16-.35.16-.2.35-.5.2-.28.36-.68.16-.4.16-.95 0-1.06-.4-1.96-.4-.91-1.06-1.64-.66-.74-1.52-1.28-.86-.55-1.79-.89-.84-.3-1.72-.44-.87-.14-1.76-.14-1.55 0-3.06.45T.94 7.55q.71-1.74 1.81-3.13 1.1-1.38 2.52-2.35Q6.68 1.1 8.37.58q1.7-.52 3.58-.52Z"/>
    </g>

    <g id="safari" xmlns="http://www.w3.org/2000/svg" viewBox="0 0 24 24">
        <path d="M12 24C5.373 24 0 18.627 0 12S5.373 0 12 0s12 5.373 12 12-5.373 12-12 12zm0-.75c6.213 0 11.25-5.037 11.25-11.25S18.213.75 12 .75.75 5.787.75 12 5.787 23.25 12 23.25zM12 2a.25.25 0 0 1 .25.25v1a.25.25 0 1 1-.5 0v-1A.25.25 0 0 1 12 2zm0 18.5a.25.25 0 0 1 .25.25v1a.25.25 0 1 1-.5 0v-1a.25.25 0 0 1 .25-.25zm7.071-15.571a.25.25 0 0 1 0 .353l-.707.708a.25.25 0 0 1-.354-.354l.708-.707a.25.25 0 0 1 .353 0zM5.99 18.01a.25.25 0 0 1 0 .354l-.708.707a.25.25 0 1 1-.353-.353l.707-.708a.25.25 0 0 1 .354 0zM4.929 4.93a.25.25 0 0 1 .353 0l.708.707a.25.25 0 0 1-.354.354l-.707-.708a.25.25 0 0 1 0-.353zM18.01 18.01a.25.25 0 0 1 .354 0l.707.708a.25.25 0 1 1-.353.353l-.708-.707a.25.25 0 0 1 0-.354zM2 12a.25.25 0 0 1 .25-.25h1a.25.25 0 1 1 0 .5h-1A.25.25 0 0 1 2 12zm18.5 0a.25.25 0 0 1 .25-.25h1a.25.25 0 1 1 0 .5h-1a.25.25 0 0 1-.25-.25zm-4.593-9.205a.25.25 0 0 1 .133.328l-.391.92a.25.25 0 1 1-.46-.195l.39-.92a.25.25 0 0 1 .328-.133zM8.68 19.825a.25.25 0 0 1 .132.327l-.39.92a.25.25 0 0 1-.46-.195l.39-.92a.25.25 0 0 1 .328-.133zM21.272 8.253a.25.25 0 0 1-.138.325l-.927.375a.25.25 0 1 1-.188-.464l.927-.374a.25.25 0 0 1 .326.138zm-17.153 6.93a.25.25 0 0 1-.138.326l-.927.374a.25.25 0 1 1-.188-.463l.927-.375a.25.25 0 0 1 .326.138zM8.254 2.728a.25.25 0 0 1 .325.138l.375.927a.25.25 0 0 1-.464.188l-.374-.927a.25.25 0 0 1 .138-.326zm6.93 17.153a.25.25 0 0 1 .326.138l.374.927a.25.25 0 1 1-.463.188l-.375-.927a.25.25 0 0 1 .138-.326zM2.795 8.093a.25.25 0 0 1 .328-.133l.92.391a.25.25 0 0 1-.195.46l-.92-.39a.25.25 0 0 1-.133-.328zm17.03 7.228a.25.25 0 0 1 .327-.132l.92.39a.25.25 0 1 1-.195.46l-.92-.39a.25.25 0 0 1-.133-.328zm-6.946-2.442L11.12 11.12l-4.141 5.9 5.899-4.142zm6.192-7.95-5.834 8.308-8.308 5.834 5.834-8.308 8.308-5.834z"/>
    </g>

    <g id="fileZilla" xmlns="http://www.w3.org/2000/svg" viewBox="0 0 24 24">
        <path d="M23.999 1.861V.803a.81.81 0 0 1-.568-.236.81.81 0 0 1-.234-.567h-1.06a.806.806 0 0 1-1.608 0h-1.06a.805.805 0 0 1-1.608 0h-1.059a.807.807 0 0 1-.845.765.808.808 0 0 1-.764-.765h-1.06a.806.806 0 0 1-1.609 0h-1.058a.805.805 0 0 1-1.608 0h-1.06a.794.794 0 0 1-.825.774A.803.803 0 0 1 7.197 0h-1.06A.806.806 0 0 1 4.53 0H3.47a.803.803 0 0 1-1.607 0H.803a.806.806 0 0 1-.802.803V1.86a.804.804 0 0 1 0 1.607v1.06a.803.803 0 0 1 0 1.607v1.059a.805.805 0 0 1 0 1.608v1.06a.803.803 0 1 1 0 1.607v1.06a.803.803 0 0 1 0 1.606v1.06a.803.803 0 1 1 0 1.608v1.06c.444.017.79.388.774.83a.801.801 0 0 1-.774.775v1.061a.803.803 0 1 1 0 1.608v1.06A.805.805 0 0 1 .804 24h1.06a.806.806 0 0 1 1.607 0h1.06a.806.806 0 0 1 1.608 0h1.059a.806.806 0 0 1 1.609 0h1.06a.804.804 0 0 1 1.607 0h1.06a.806.806 0 0 1 1.607 0H15.2a.807.807 0 0 1 1.61 0h1.058a.807.807 0 0 1 1.61 0h1.059a.804.804 0 0 1 1.606 0h1.054c0-.21.086-.418.235-.568a.808.808 0 0 1 .567-.234v-1.06a.805.805 0 0 1 0-1.606v-1.06a.805.805 0 0 1 0-1.608v-1.06a.806.806 0 0 1 0-1.608v-1.061a.804.804 0 0 1 0-1.608V11.47a.806.806 0 0 1 0-1.608v-1.06a.804.804 0 0 1 0-1.607v-1.06a.805.805 0 0 1 0-1.606v-1.06a.806.806 0 0 1 0-1.608zm-4.067 9.836L13.53 17.92c.58.09 1.14.225 1.742.225 1.464 0 3.147-.445 4.285-.916l-.584 2.745c-1.675.805-2.7.87-3.701.87-1.095 0-2.144-.356-3.215-.356-.602 0-1.473.045-2.008.4l-1.16-2.052 6.604-6.54h-7.6l-1.45 6.806h-3.17L6.577 3.528h10.487l-.67 3.145H9.097l-.624 2.924h11.973z"/>
    </g>

    <g id="googleAnalytics" xmlns="http://www.w3.org/2000/svg" viewBox="0 0 24 24">
        <path d="M22.84 2.998v17.999a2.983 2.983 0 0 1-2.967 2.998 2.98 2.98 0 0 1-.368-.02 3.06 3.06 0 0 1-2.61-3.1V3.12A3.06 3.06 0 0 1 19.51.02a2.983 2.983 0 0 1 3.329 2.978zM4.133 18.055a2.973 2.973 0 1 0 0 5.945 2.973 2.973 0 0 0 0-5.945zm7.872-9.01h-.05a3.06 3.06 0 0 0-2.892 3.126v7.985c0 2.167.954 3.482 2.35 3.763a2.978 2.978 0 0 0 3.57-2.927v-8.959a2.983 2.983 0 0 0-2.978-2.988z"/>
    </g>

    <g id="googleSearchConsole" xmlns="http://www.w3.org/2000/svg" viewBox="0 0 24 24">
        <path d="M8.548 1.156 6.832 2.872v1.682h1.716zm0 3.398v.035H6.832v-.035H3.386L0 7.844v3.577h2.826V8.94c0-.525.429-.954.954-.954h16.476c.525 0 .954.43.954.954v2.48h2.754V7.844l-3.386-3.29H17.3v.035h-1.717v-.035zm7.035 0H17.3V2.872l-1.717-1.716zM8.679 1.188V2.84h6.773V1.188zm11.471 7.07a.834.834 0 0 0-.132.01l-.543.002c-5.216.014-10.432-.008-15.648.01-.435-.063-.794.436-.716.883v2.264h17.812c-.016-.888.045-1.782-.034-2.666-.104-.342-.427-.502-.739-.502zm-15.422.634a.689.698 0 0 1 .689.698.689.698 0 0 1-.689.697.689.698 0 0 1-.688-.697.689.698 0 0 1 .688-.698zm2.134 0a.689.698 0 0 1 .689.698.689.698 0 0 1-.689.697.689.698 0 0 1-.688-.697.689.698 0 0 1 .688-.698zM.036 11.645v9.156c0 1.05.858 1.908 1.907 1.908h.883V11.645zm21.174 0v11.064h.882c1.05 0 1.908-.858 1.908-1.908v-9.156zM4.057 13.133v6.85h6.137v-6.85zm13.243.021v3.777l-1.708.977-1.708-.977v-3.758a4.006 4.006 0 0 0 0 7.23v2.441h3.457v-2.442a4.006 4.006 0 0 0-.041-7.248zm-13.243 8.26v1.43h7.925v-1.43z"/>
    </g>

    <g id="googleSheets" xmlns="http://www.w3.org/2000/svg" viewBox="0 0 24 24">
        <path d="M11.318 12.545H7.91v-1.909h3.41v1.91zM14.728 0v6h6l-6-6zm1.363 10.636h-3.41v1.91h3.41v-1.91zm0 3.273h-3.41v1.91h3.41v-1.91zM20.727 6.5v15.864c0 .904-.732 1.636-1.636 1.636H4.909a1.636 1.636 0 0 1-1.636-1.636V1.636C3.273.732 4.005 0 4.909 0h9.318v6.5h6.5zm-3.273 2.773H6.545v7.909h10.91v-7.91zm-6.136 4.636H7.91v1.91h3.41v-1.91z"/>
    </g>

    <g id="googleDrive" xmlns="http://www.w3.org/2000/svg" viewBox="0 0 24 24">
        <path d="M12.01 1.485c-2.082 0-3.754.02-3.743.047.01.02 1.708 3.001 3.774 6.62l3.76 6.574h3.76c2.081 0 3.753-.02 3.742-.047-.005-.02-1.708-3.001-3.775-6.62l-3.76-6.574zm-4.76 1.73a789.828 789.861 0 0 0-3.63 6.319L0 15.868l1.89 3.298 1.885 3.297 3.62-6.335 3.618-6.33-1.88-3.287C8.1 4.704 7.255 3.22 7.25 3.214zm2.259 12.653-.203.348c-.114.198-.96 1.672-1.88 3.287a423.93 423.948 0 0 1-1.698 2.97c-.01.026 3.24.042 7.222.042h7.244l1.796-3.157c.992-1.734 1.85-3.23 1.906-3.323l.104-.167h-7.249z"/>
    </g>

    <g id="googleMeet" xmlns="http://www.w3.org/2000/svg" viewBox="0 0 24 24">
        <path d="M5.53 2.13 0 7.75h5.53zm.398 0v5.62h7.608v3.65l5.47-4.45c-.014-1.22.031-2.25-.025-3.46-.148-1.09-1.287-1.47-2.236-1.36zM23.1 4.32c-.802.295-1.358.995-2.047 1.49-2.506 2.05-4.982 4.12-7.468 6.19 3.025 2.59 6.04 5.18 9.065 7.76 1.218.671 1.428-.814 1.328-1.64v-13a.828.828 0 0 0-.877-.825zM.038 8.15v7.7h5.53v-7.7zm13.577 8.1H6.008v5.62c3.864-.006 7.737.011 11.58-.009 1.02-.07 1.618-1.12 1.468-2.07v-2.51l-5.47-4.68v3.65zm-13.577 0c.02 1.44-.041 2.88.033 4.31.162.948 1.158 1.43 2.047 1.31h3.464v-5.62z"/>
    </g>

    <g id="googleChat" xmlns="http://www.w3.org/2000/svg" viewBox="0 0 24 24">
        <path d="M7.533 0a1.816 1.816 0 0 0-1.816 1.816v2.832h11.178c1.043 0 1.888.855 1.888 1.91v8.204h2.906a1.816 1.816 0 0 0 1.817-1.817V1.816A1.816 1.816 0 0 0 21.689 0H7.533zM2.311 5.148A1.816 1.816 0 0 0 .494 6.965V23.09c0 .81.979 1.215 1.55.642l3.749-3.748h10.674a1.816 1.816 0 0 0 1.816-1.816V6.965a1.816 1.816 0 0 0-1.816-1.817H2.31Z"/>
    </g>

    <g id="googleGmail" xmlns="http://www.w3.org/2000/svg" viewBox="0 0 24 24">
        <path d="M24 5.457v13.909c0 .904-.732 1.636-1.636 1.636h-3.819V11.73L12 16.64l-6.545-4.91v9.273H1.636A1.636 1.636 0 0 1 0 19.366V5.457c0-2.023 2.309-3.178 3.927-1.964L5.455 4.64 12 9.548l6.545-4.91 1.528-1.145C21.69 2.28 24 3.434 24 5.457z"/>
    </g>

    <g id="googleDomains" xmlns="http://www.w3.org/2000/svg" viewBox="0 0 24 24">
        <path d="M17.29.817c-.811 0-1.388.469-1.713 1.208L13.491 7.01c-3.121-3.072-8.145-3.015-11.207.102-3.066 3.12-3.048 8.134.072 11.218a7.991 7.991 0 0 0 5.467 2.29l-.597 1.444a.942.942 0 0 0-.054.325c0 .45.379.811.83.793h5.717c.794 0 1.515-.468 1.84-1.208l8.369-20.003A.708.708 0 0 0 24 1.647a.827.827 0 0 0-.83-.83zm-3.787 6.205a7.94 7.94 0 0 1 2.399 5.609c.018 4.365-3.5 7.936-7.864 7.972h-.199Z"/>
    </g>

    <g id="microsoftWord" xmlns="http://www.w3.org/2000/svg" viewBox="0 0 24 24">
        <path d="M23.004 1.5q.41 0 .703.293t.293.703v19.008q0 .41-.293.703t-.703.293H6.996q-.41 0-.703-.293T6 21.504V18H.996q-.41 0-.703-.293T0 17.004V6.996q0-.41.293-.703T.996 6H6V2.496q0-.41.293-.703t.703-.293zM6.035 11.203l1.442 4.735h1.64l1.57-7.876H9.036l-.937 4.653-1.325-4.5H5.38l-1.406 4.523-.938-4.675H1.312l1.57 7.874h1.641zM22.5 21v-3h-15v3zm0-4.5v-3.75H12v3.75zm0-5.25V7.5H12v3.75zm0-5.25V3h-15v3Z"/>
    </g>

    <g id="microsoftExcel" xmlns="http://www.w3.org/2000/svg" viewBox="0 0 24 24">
        <path d="M23 1.5q.41 0 .7.3.3.29.3.7v19q0 .41-.3.7-.29.3-.7.3H7q-.41 0-.7-.3-.3-.29-.3-.7V18H1q-.41 0-.7-.3-.3-.29-.3-.7V7q0-.41.3-.7Q.58 6 1 6h5V2.5q0-.41.3-.7.29-.3.7-.3zM6 13.28l1.42 2.66h2.14l-2.38-3.87 2.34-3.8H7.46l-1.3 2.4-.05.08-.04.09-.64-1.28-.66-1.29H2.59l2.27 3.82-2.48 3.85h2.16zM14.25 21v-3H7.5v3zm0-4.5v-3.75H12v3.75zm0-5.25V7.5H12v3.75zm0-5.25V3H7.5v3zm8.25 15v-3h-6.75v3zm0-4.5v-3.75h-6.75v3.75zm0-5.25V7.5h-6.75v3.75zm0-5.25V3h-6.75v3Z"/>
    </g>

    <g id="microsoftTeams" xmlns="http://www.w3.org/2000/svg" viewBox="0 0 24 24">
        <path d="M20.625 8.127q-.55 0-1.025-.205-.475-.205-.832-.563-.358-.357-.563-.832Q18 6.053 18 5.502q0-.54.205-1.02t.563-.837q.357-.358.832-.563.474-.205 1.025-.205.54 0 1.02.205t.837.563q.358.357.563.837.205.48.205 1.02 0 .55-.205 1.025-.205.475-.563.832-.357.358-.837.563-.48.205-1.02.205zm0-3.75q-.469 0-.797.328-.328.328-.328.797 0 .469.328.797.328.328.797.328.469 0 .797-.328.328-.328.328-.797 0-.469-.328-.797-.328-.328-.797-.328zM24 10.002v5.578q0 .774-.293 1.46-.293.685-.803 1.194-.51.51-1.195.803-.686.293-1.459.293-.445 0-.908-.105-.463-.106-.85-.329-.293.95-.855 1.729-.563.78-1.319 1.336-.756.557-1.67.861-.914.305-1.898.305-1.148 0-2.162-.398-1.014-.399-1.805-1.102-.79-.703-1.312-1.664t-.674-2.086h-5.8q-.411 0-.704-.293T0 16.881V6.873q0-.41.293-.703t.703-.293h8.59q-.34-.715-.34-1.5 0-.727.275-1.365.276-.639.75-1.114.475-.474 1.114-.75.638-.275 1.365-.275t1.365.275q.639.276 1.114.75.474.475.75 1.114.275.638.275 1.365t-.275 1.365q-.276.639-.75 1.113-.475.475-1.114.75-.638.276-1.365.276-.188 0-.375-.024-.188-.023-.375-.058v1.078h10.875q.469 0 .797.328.328.328.328.797zM12.75 2.373q-.41 0-.78.158-.368.158-.638.434-.27.275-.428.639-.158.363-.158.773 0 .41.158.78.159.368.428.638.27.27.639.428.369.158.779.158.41 0 .773-.158.364-.159.64-.428.274-.27.433-.639.158-.369.158-.779 0-.41-.158-.773-.159-.364-.434-.64-.275-.275-.639-.433-.363-.158-.773-.158zM6.937 9.814h2.25V7.94H2.814v1.875h2.25v6h1.875zm10.313 7.313v-6.75H12v6.504q0 .41-.293.703t-.703.293H8.309q.152.809.556 1.5.405.691.985 1.19.58.497 1.318.779.738.281 1.582.281.926 0 1.746-.352.82-.351 1.436-.966.615-.616.966-1.43.352-.815.352-1.752zm5.25-1.547v-5.203h-3.75v6.855q.305.305.691.452.387.146.809.146.469 0 .879-.176.41-.175.715-.48.304-.305.48-.715t.176-.879Z"/>
    </g>

    <g id="microsoftWindows" xmlns="http://www.w3.org/2000/svg" viewBox="0 0 24 24">
        <path d="M0 3.449 9.75 2.1v9.451H0m10.949-9.602L24 0v11.4H10.949M0 12.6h9.75v9.451L0 20.699M10.949 12.6H24V24l-12.9-1.801"/>
    </g>

    <g id="windowsTerminal" xmlns="http://www.w3.org/2000/svg" viewBox="0 0 24 24">
        <path d="M8.165 6V3h7.665v3H8.165zm-.5-3H1c-.55 0-1 .45-1 1v2h7.665V3zM23 3h-6.67v3H24V4c0-.55-.45-1-1-1zM0 6.5h24V20c0 .55-.45 1-1 1H1c-.55 0-1-.45-1-1V6.5zM11.5 18c0 .3.2.5.5.5h8c.3 0 .5-.2.5-.5v-1.5c0-.3-.2-.5-.5-.5h-8c-.3 0-.5.2-.5.5V18zm-5.2-4.55-3.1 3.1c-.25.25-.25.6 0 .8l.9.9c.25.25.6.25.8 0l4.4-4.4a.52.52 0 0 0 0-.8l-4.4-4.4c-.2-.2-.6-.2-.8 0l-.9.9c-.25.2-.25.55 0 .8l3.1 3.1z"/>
    </g>

    <g id="wordpress" xmlns="http://www.w3.org/2000/svg" viewBox="0 0 24 24">
        <path d="M21.469 6.825c.84 1.537 1.318 3.3 1.318 5.175 0 3.979-2.156 7.456-5.363 9.325l3.295-9.527c.615-1.54.82-2.771.82-3.864 0-.405-.026-.78-.07-1.11m-7.981.105c.647-.03 1.232-.105 1.232-.105.582-.075.514-.93-.067-.899 0 0-1.755.135-2.88.135-1.064 0-2.85-.15-2.85-.15-.585-.03-.661.855-.075.885 0 0 .54.061 1.125.09l1.68 4.605-2.37 7.08L5.354 6.9c.649-.03 1.234-.1 1.234-.1.585-.075.516-.93-.065-.896 0 0-1.746.138-2.874.138-.2 0-.438-.008-.69-.015C4.911 3.15 8.235 1.215 12 1.215c2.809 0 5.365 1.072 7.286 2.833-.046-.003-.091-.009-.141-.009-1.06 0-1.812.923-1.812 1.914 0 .89.513 1.643 1.06 2.531.411.72.89 1.643.89 2.977 0 .915-.354 1.994-.821 3.479l-1.075 3.585-3.9-11.61.001.014zM12 22.784c-1.059 0-2.081-.153-3.048-.437l3.237-9.406 3.315 9.087c.024.053.05.101.078.149-1.12.393-2.325.609-3.582.609M1.211 12c0-1.564.336-3.05.935-4.39L7.29 21.709A10.794 10.794 0 0 1 1.211 12M12 0C5.385 0 0 5.385 0 12s5.385 12 12 12 12-5.385 12-12S18.615 0 12 0"/>
    </g>

    <g id="wpRocket" xmlns="http://www.w3.org/2000/svg" viewBox="0 0 24 24">
        <path d="M3.723.666c-.08-.276.08-.47.356-.47h2.283c.16 0 .31.137.356.274l1.675 6.6h.08L11.491.218A.374.374 0 0 1 11.824 0h.356c.172 0 .287.092.333.218l3.018 6.85h.08L17.286.47a.397.397 0 0 1 .356-.275h2.284c.275 0 .424.195.355.47l-3.683 13.082a.369.369 0 0 1-.356.275h-.31a.38.38 0 0 1-.333-.218l-3.568-7.963h-.058l-3.545 7.963a.403.403 0 0 1-.333.218h-.31a.379.379 0 0 1-.356-.275L3.723.666m8.308 7.917-2.594 5.818a1.663 1.663 0 0 1-.344.448v.004a1.466 1.466 0 0 1-.688.34l1.4 8.687c.091.16.263.16.367 0l1.79-2.72 1.64 2.708c.104.16.265.16.368 0l1.584-8.698a1.5 1.5 0 0 1-.832-.618l-.02-.03a1.405 1.405 0 0 1-.066-.12l-.609-1.366h-.003Z"/>
    </g>

    <g id="yoastSEO" xmlns="http://www.w3.org/2000/svg" viewBox="0 0 24 24">
        <path d="M15.864 0 14.55 3.652H5.422A3.592 3.592 0 0 0 1.84 7.233v9.529a3.592 3.592 0 0 0 3.582 3.581h1.495a4.9 4.9 0 0 1-.18.029l-.34.047V24h.391c2.76 0 4.442-1.385 5.706-3.657h9.666V7.233a3.593 3.593 0 0 0-3.253-3.565L20.275 0zm.556.778h2.738l-6.055 16.22c-1.55 4.335-3.186 6.064-5.924 6.21v-2.12c1.767-.354 2.418-1.461 2.785-2.408a3.902 3.902 0 0 0 0-2.828L6.43 6.772h2.488l2.512 7.86z"/>
    </g>

    <g id="jira" xmlns="http://www.w3.org/2000/svg" viewBox="0 0 24 24">
        <path d="M11.571 11.513H0a5.218 5.218 0 0 0 5.232 5.215h2.13v2.057A5.215 5.215 0 0 0 12.575 24V12.518a1.005 1.005 0 0 0-1.005-1.005zm5.723-5.756H5.736a5.215 5.215 0 0 0 5.215 5.214h2.129v2.058a5.218 5.218 0 0 0 5.215 5.214V6.758a1.001 1.001 0 0 0-1.001-1.001zM23.013 0H11.455a5.215 5.215 0 0 0 5.215 5.215h2.129v2.057A5.215 5.215 0 0 0 24 12.483V1.005A1.001 1.001 0 0 0 23.013 0Z"/>
    </g>

    <g id="confluence" xmlns="http://www.w3.org/2000/svg" viewBox="0 0 24 24">
        <path d="M.87 18.257c-.248.382-.53.875-.763 1.245a.764.764 0 0 0 .255 1.04l4.965 3.054a.764.764 0 0 0 1.058-.26c.199-.332.454-.763.733-1.221 1.967-3.247 3.945-2.853 7.508-1.146l4.957 2.337a.764.764 0 0 0 1.028-.382l2.364-5.346a.764.764 0 0 0-.382-1 599.851 599.851 0 0 1-4.965-2.361C10.911 10.97 5.224 11.185.87 18.257zM23.131 5.743c.249-.405.531-.875.764-1.25a.764.764 0 0 0-.256-1.034L18.675.404a.764.764 0 0 0-1.058.26 66.14 66.14 0 0 1-.734 1.225c-1.966 3.246-3.945 2.85-7.508 1.146L4.437.694a.764.764 0 0 0-1.027.382L1.046 6.422a.764.764 0 0 0 .382 1c1.039.49 3.105 1.467 4.965 2.361 6.698 3.246 12.392 3.029 16.738-4.04z"/>
    </g>

    <g id="clickUp" xmlns="http://www.w3.org/2000/svg" viewBox="0 0 24 24">
        <path d="m2 18.439 3.69-2.828c1.961 2.56 4.044 3.739 6.363 3.739 2.307 0 4.33-1.166 6.203-3.704L22 18.405C19.298 22.065 15.941 24 12.053 24 8.178 24 4.788 22.078 2 18.439zM12.04 6.15l-6.568 5.66-3.036-3.52L12.055 0l9.543 8.296-3.05 3.509z"/>
    </g>

    <g id="zoom" xmlns="http://www.w3.org/2000/svg" viewBox="0 0 24 24">
        <path d="m4.585 13.607-.27-.012H1.886l3.236-3.237-.013-.27a.815.815 0 0 0-.796-.796l-.27-.013H0l.014.27c.034.438.353.77.794.796l.27.013h2.43l-3.24 3.237.014.269c.015.433.362.78.795.796l.27.013h4.046l-.014-.27c-.036-.443-.35-.767-.795-.795zm3.238-4.328h-.004a2.696 2.697 0 1 0 .003 0zm1.141 3.841a1.619 1.619 0 1 1-2.289-2.288 1.619 1.619 0 0 1 2.289 2.288zM21.84 9.28a2.158 2.158 0 0 0-1.615.73 2.153 2.153 0 0 0-1.619-.732 2.148 2.148 0 0 0-1.208.37c-.21-.233-.68-.37-.949-.37v5.395l.27-.013c.45-.03.778-.349.796-.796l.013-.27v-1.889l.014-.27c.01-.202.04-.382.132-.54a1.078 1.079 0 0 1 1.473-.393 1.078 1.079 0 0 1 .393.392c.093.16.12.34.132.54l.014.271v1.889l.013.269a.83.83 0 0 0 .795.796l.27.013v-2.967l.012-.27c.01-.2.04-.384.134-.543.3-.514.96-.69 1.473-.39a1.078 1.079 0 0 1 .393.393c.092.16.12.343.13.54l.015.27v1.889l.013.269c.028.443.35.77.796.796l.27.013v-3.237a2.158 2.158 0 0 0-2.16-2.156zm-10.263.788a2.697 2.698 0 1 0 3.811 3.816 2.697 2.698 0 0 0-3.811-3.816zm3.05 3.052a1.619 1.619 0 1 1-2.289-2.29 1.619 1.619 0 0 1 2.289 2.29z"/>
    </g>

    <g id="slack" xmlns="http://www.w3.org/2000/svg" viewBox="0 0 24 24">
        <path d="M5.042 15.165a2.528 2.528 0 0 1-2.52 2.523A2.528 2.528 0 0 1 0 15.165a2.527 2.527 0 0 1 2.522-2.52h2.52v2.52zm1.271 0a2.527 2.527 0 0 1 2.521-2.52 2.527 2.527 0 0 1 2.521 2.52v6.313A2.528 2.528 0 0 1 8.834 24a2.528 2.528 0 0 1-2.521-2.522v-6.313zM8.834 5.042a2.528 2.528 0 0 1-2.521-2.52A2.528 2.528 0 0 1 8.834 0a2.528 2.528 0 0 1 2.521 2.522v2.52H8.834zm0 1.271a2.528 2.528 0 0 1 2.521 2.521 2.528 2.528 0 0 1-2.521 2.521H2.522A2.528 2.528 0 0 1 0 8.834a2.528 2.528 0 0 1 2.522-2.521h6.312zm10.122 2.521a2.528 2.528 0 0 1 2.522-2.521A2.528 2.528 0 0 1 24 8.834a2.528 2.528 0 0 1-2.522 2.521h-2.522V8.834zm-1.268 0a2.528 2.528 0 0 1-2.523 2.521 2.527 2.527 0 0 1-2.52-2.521V2.522A2.527 2.527 0 0 1 15.165 0a2.528 2.528 0 0 1 2.523 2.522v6.312zm-2.523 10.122a2.528 2.528 0 0 1 2.523 2.522A2.528 2.528 0 0 1 15.165 24a2.527 2.527 0 0 1-2.52-2.522v-2.522h2.52zm0-1.268a2.527 2.527 0 0 1-2.52-2.523 2.526 2.526 0 0 1 2.52-2.52h6.313A2.527 2.527 0 0 1 24 15.165a2.528 2.528 0 0 1-2.522 2.523h-6.313z"/>
    </g>

    <g id="gnuBash" xmlns="http://www.w3.org/2000/svg" viewBox="0 0 24 24">
        <path d="M21.038 4.9 13.461.402a2.86 2.86 0 0 0-2.923.001L2.961 4.9A3.023 3.023 0 0 0 1.5 7.503v8.995c0 1.073.557 2.066 1.462 2.603l7.577 4.497a2.86 2.86 0 0 0 2.922 0l7.577-4.497a3.023 3.023 0 0 0 1.462-2.603V7.503A3.021 3.021 0 0 0 21.038 4.9zM15.17 18.946l.013.646c.001.078-.05.167-.111.198l-.383.22c-.061.031-.111-.007-.112-.085l-.007-.635c-.328.136-.66.169-.872.084-.04-.016-.057-.075-.041-.142l.139-.584a.24.24 0 0 1 .069-.121.163.163 0 0 1 .036-.026c.022-.011.043-.014.062-.006.229.077.521.041.802-.101.357-.181.596-.545.592-.907-.003-.328-.181-.465-.613-.468-.55.001-1.064-.107-1.072-.917-.007-.667.34-1.361.889-1.8l-.007-.652c-.001-.08.048-.168.111-.2l.37-.236c.061-.031.111.007.112.087l.006.653c.273-.109.511-.138.726-.088.047.012.067.076.048.151l-.144.578a.255.255 0 0 1-.065.116.161.161 0 0 1-.038.028.083.083 0 0 1-.057.009c-.098-.022-.332-.073-.699.113-.385.195-.52.53-.517.778.003.297.155.387.681.396.7.012 1.003.318 1.01 1.023.007.689-.362 1.433-.928 1.888zm3.973-1.087c0 .06-.008.116-.058.145l-1.916 1.164c-.05.029-.09.004-.09-.056v-.494c0-.06.037-.093.087-.122l1.887-1.129c.05-.029.09-.004.09.056v.436zm1.316-11.062-7.168 4.427c-.894.523-1.553 1.109-1.553 2.187v8.833c0 .645.26 1.063.66 1.184a2.304 2.304 0 0 1-.398.039c-.42 0-.833-.114-1.197-.33L3.226 18.64a2.494 2.494 0 0 1-1.201-2.142V7.503c0-.881.46-1.702 1.201-2.142L10.803.863a2.342 2.342 0 0 1 2.394 0l7.577 4.498a2.479 2.479 0 0 1 1.164 1.732c-.252-.536-.818-.682-1.479-.296z"/>
    </g>

    <g id="cloudflare" xmlns="http://www.w3.org/2000/svg" viewBox="0 0 24 24">
        <path d="M16.509 16.845c.147-.507.09-.971-.155-1.316-.225-.316-.605-.499-1.062-.52l-8.66-.113a.156.156 0 0 1-.133-.07.194.194 0 0 1-.02-.156.24.24 0 0 1 .203-.156l8.736-.113c1.035-.049 2.16-.886 2.554-1.913l.499-1.302a.27.27 0 0 0 .014-.168 5.689 5.689 0 0 0-10.938-.584 2.584 2.584 0 0 0-1.793-.498 2.561 2.561 0 0 0-2.223 3.18A3.634 3.634 0 0 0 0 16.751c0 .175.014.351.035.527a.174.174 0 0 0 .17.148h15.98c.091 0 .176-.065.204-.155l.12-.427zm2.757-5.564c-.077 0-.161 0-.239.011-.056 0-.105.042-.127.098l-.337 1.174c-.148.507-.092.971.154 1.317.225.316.605.498 1.062.52l1.844.113c.056 0 .105.026.133.07a.203.203 0 0 1 .021.156.24.24 0 0 1-.204.156l-1.92.112c-1.042.049-2.159.887-2.553 1.914l-.141.358c-.028.072.021.142.099.142h6.597a.174.174 0 0 0 .17-.126c.111-.408.175-.837.175-1.28a4.74 4.74 0 0 0-4.734-4.727"/>
    </g>

    <g id="cloudflarePages" xmlns="http://www.w3.org/2000/svg" viewBox="0 0 24 24">
        <path d="M10.715 14.32H5.442l-.64-1.203L13.673 0l1.397.579-1.752 9.112h5.24l.648 1.192L10.719 24l-1.412-.54ZM4.091 5.448a.579.579 0 1 1 0-1.157.579.579 0 0 1 0 1.157zm1.543 0a.579.579 0 1 1 0-1.157.579.579 0 0 1 0 1.157zm1.544 0a.579.579 0 1 1 0-1.157.579.579 0 0 1 0 1.157zm8.657-2.7h5.424l.772.771v16.975l-.772.772h-7.392l.374-.579h6.779l.432-.432V3.758l-.432-.432h-4.676l-.552 2.85h-.59l.529-2.877.108-.552ZM2.74 21.265l-.772-.772V3.518l.772-.771h7.677l-.386.579H2.98l-.432.432v16.496l.432.432h5.586l-.092.579zm1.157-1.93h3.28l-.116.58h-3.55l-.192-.193v-3.473l.578 1.158zm13.117 0 .579.58H14.7l.385-.58z"/>
    </g>

    <g id="figma" xmlns="http://www.w3.org/2000/svg" viewBox="0 0 24 24">
        <path d="M15.852 8.981h-4.588V0h4.588c2.476 0 4.49 2.014 4.49 4.49s-2.014 4.491-4.49 4.491zM12.735 7.51h3.117c1.665 0 3.019-1.355 3.019-3.019s-1.355-3.019-3.019-3.019h-3.117V7.51zm0 1.471H8.148c-2.476 0-4.49-2.014-4.49-4.49S5.672 0 8.148 0h4.588v8.981zm-4.587-7.51c-1.665 0-3.019 1.355-3.019 3.019s1.354 3.02 3.019 3.02h3.117V1.471H8.148zm4.587 15.019H8.148c-2.476 0-4.49-2.014-4.49-4.49s2.014-4.49 4.49-4.49h4.588v8.98zM8.148 8.981c-1.665 0-3.019 1.355-3.019 3.019s1.355 3.019 3.019 3.019h3.117V8.981H8.148zM8.172 24c-2.489 0-4.515-2.014-4.515-4.49s2.014-4.49 4.49-4.49h4.588v4.441c0 2.503-2.047 4.539-4.563 4.539zm-.024-7.51a3.023 3.023 0 0 0-3.019 3.019c0 1.665 1.365 3.019 3.044 3.019 1.705 0 3.093-1.376 3.093-3.068v-2.97H8.148zm7.704 0h-.098c-2.476 0-4.49-2.014-4.49-4.49s2.014-4.49 4.49-4.49h.098c2.476 0 4.49 2.014 4.49 4.49s-2.014 4.49-4.49 4.49zm-.097-7.509c-1.665 0-3.019 1.355-3.019 3.019s1.355 3.019 3.019 3.019h.098c1.665 0 3.019-1.355 3.019-3.019s-1.355-3.019-3.019-3.019h-.098z"/>
    </g>

    <g id="webflow" xmlns="http://www.w3.org/2000/svg" viewBox="0 0 24 24">
        <path d="M17.802 8.56s-1.946 6.103-2.105 6.607a4778.8 4778.8 0 0 0-1.484-11.473c-3.316 0-5.089 2.36-6.026 4.851l-2.565 6.637c-.015-.476-.36-6.565-.36-6.565-.204-3.052-3-4.91-5.262-4.91l2.739 16.6c3.474-.015 5.347-2.361 6.328-4.852 0 0 2.09-5.398 2.176-5.643.015.23 1.5 10.494 1.5 10.494 3.488 0 5.362-2.202 6.37-4.606L24 3.708c-3.445 0-5.261 2.346-6.198 4.851Z"/>
    </g>

    <g id="pingdom" xmlns="http://www.w3.org/2000/svg" viewBox="0 0 24 24">
        <path d="m11.96 17.804 7.959-3.396-7.049 7.241a14.392 14.392 0 0 0-.91-3.844v-.001zM24 11.118a44.234 44.234 0 0 0-15.087 1.92 14.56 14.56 0 0 1 2.535 3.621c4.042-2.25 9.646-5.123 12.552-5.531v-.015.005zm-12.574.275.207-.06a40.124 40.124 0 0 0 4.523-1.656 16.586 16.586 0 0 0 4.159-2.367 9.023 9.023 0 0 0 2.915-4.122c.12-.267.211-.549.267-.837-2.024 2.76-10.041 3.048-10.041 3.048l1.89-1.734A26.413 26.413 0 0 0 0 8.645a14.44 14.44 0 0 1 8.139 3.634c1.086-.336 2.196-.576 3.286-.879v-.006l.001-.001z"/>
    </g>

    <g id="pageSpeedInsights" xmlns="http://www.w3.org/2000/svg" viewBox="0 0 24 24">
        <path d="M22.363 1.636H1.635C.732 1.636 0 2.37.001 3.273L0 20.727v.003c0 .903.733 1.634 1.635 1.634h20.73c.904 0 1.635-.734 1.635-1.637V3.273c.016-.89-.76-1.64-1.637-1.637zM3.979 2.886c.492-.507 1.279.28.77.772-.491.508-1.278-.279-.77-.771zM1.8 2.89c.507-.509 1.28.265.772.771-.493.502-1.274-.28-.772-.771zm21.7 17.838c.012.611-.524 1.148-1.137 1.136H1.635A1.137 1.137 0 0 1 .5 20.727L.501 4.91H23.5v15.819zM11 16.159l5.946-4.577c.235-.2.576.129.389.372l-.002-.002-3.936 6.35a1.638 1.638 0 0 1-2.448.405c-.785-.668-.811-1.835.05-2.548zm4.763-.75c.09-.168 2.002-3.181 2.06-3.35 2.056 1.813 3.029 4.382 2.898 7.026h-3.819c.073-1.39-.29-2.678-1.139-3.676zm-8.679 3.682H3.278c-.357-7.022 7.148-11.735 13.39-7.92l-3.461 2.618c-3.3-.762-6.364 1.71-6.123 5.302z"/>
    </g>

    <g id="wappalyzer" xmlns="http://www.w3.org/2000/svg" viewBox="0 0 24 24">
        <path d="M24 11.014v-.604L12 1.805 0 10.41v.603l12 8.606 12-8.605zM8.634 10.82l2.75 1.07.016-.01-1.526-1.967.984-.72 2.695 1.116.016-.011-1.463-2.018 1.247-.913 2.6 3.85-1.046.766-2.797-1.157-.012.008 1.593 2.038-1.048.767-5.26-1.903 1.251-.916zm14.418 1.488.947.679v.603l-12 8.605L0 13.59v-.603l.947-.678 10.761 7.717.292.21.291-.21 10.762-7.717z"/>
    </g>

    <g id="bitwarden" xmlns="http://www.w3.org/2000/svg" viewBox="0 0 24 24">
        <path d="M3.75 0A3.75 3.75 0 0 0 0 3.75v16.5A3.75 3.75 0 0 0 3.75 24h16.5A3.75 3.75 0 0 0 24 20.25V3.75A3.75 3.75 0 0 0 20.25 0zm1.36 2.92h13.8c.208 0 .388.076.54.228a.737.737 0 0 1 .227.539v9.2a5.51 5.51 0 0 1-.401 2.042 7.618 7.618 0 0 1-.995 1.797 11.097 11.097 0 0 1-1.413 1.528c-.547.495-1.052.906-1.515 1.234a19.57 19.57 0 0 1-1.45.928c-.503.291-.86.489-1.072.593a12.88 12.88 0 0 1-.51.24.687.687 0 0 1-.31.071.688.688 0 0 1-.312-.072 13.784 13.784 0 0 1-.51-.24 20.61 20.61 0 0 1-1.071-.592 19.133 19.133 0 0 1-1.45-.928 16.457 16.457 0 0 1-1.515-1.234 11.11 11.11 0 0 1-1.414-1.528 7.617 7.617 0 0 1-.994-1.797 5.502 5.502 0 0 1-.401-2.042v-9.2c0-.208.076-.387.227-.54a.737.737 0 0 1 .54-.227zm6.9 2.3v13.62c.95-.502 1.801-1.05 2.552-1.64 1.877-1.47 2.815-2.907 2.815-4.313V5.22Z"/>
    </g>

    <g id="lighthouse" xmlns="http://www.w3.org/2000/svg" viewBox="0 0 24 24">
        <path d="m12 0 5.5 3.5v5H20v3h-2.25l2 12.5H4.25l2-12.5H4v-3h2.5V3.53zm2.94 13.25-6.22 2.26L8 20.04l7.5-2.75zM12 3.56 9.5 5.17V8.5h5V5.15Z"/>
    </g>

    <g id="hotjar" xmlns="http://www.w3.org/2000/svg" viewBox="0 0 24 24">
        <path d="M21.055 7.814C17.512 1.404 7.118 0 7.118 0s4.798 5.34-1.334 9.567c-3.876 2.666-5.41 6.13-3.75 9.914 1.27 2.9 3.96 4.076 6.86 4.519-.745-1.434-.932-3.505-.381-5.628a8.51 8.51 0 0 1 .186-.636c.813 1.258 2.148 1.946 3.45 1.629 1.783-.424 2.829-2.582 2.342-4.799a5.104 5.104 0 0 0-.536-1.372c.07.017.14.024.212.047 2.225.635 3.301 3.962 2.403 7.434a9.266 9.266 0 0 1-1.325 2.946c3.82-1.23 6.36-4.311 7.06-7.056.736-2.856.177-6.185-1.25-8.751z"/>
    </g>

    <g id="namecheap" xmlns="http://www.w3.org/2000/svg" viewBox="0 0 24 24">
        <path d="M17.295 17.484c.227.403.57.728.985.931-.309.15-.647.229-.99.232h-3.068a2.26 2.26 0 0 1-1.957-1.143L6.705 6.511a2.27 2.27 0 0 0-.974-.922c.309-.153.652-.233.997-.232h3.05c.81.003 1.558.438 1.959 1.143l5.558 10.984zm-9.329-7.392L6.269 6.755c-.209-.392-.582-.657-.984-.829-.204.165-.391.35-.522.581-.184.349-4.391 8.648-4.569 8.987a2.245 2.245 0 0 0 4.016 1.999l3.756-7.401zm15.846-1.593a2.245 2.245 0 0 0-1.162-2.955v-.001a2.243 2.243 0 0 0-.892-.187l-.003-.011c-.816 0-1.569.443-1.965 1.157l-3.749 7.414 1.689 3.323c.213.399.59.664.998.839.252-.2.473-.444.605-.742l4.479-8.837z"/>
    </g>

    <g id="canva" xmlns="http://www.w3.org/2000/svg" viewBox="0 0 24 24">
        <path d="M12 0C5.373 0 0 5.373 0 12s5.373 12 12 12 12-5.373 12-12S18.627 0 12 0zM6.962 7.68c.754 0 1.337.549 1.405 1.2.069.583-.171 1.097-.822 1.406-.343.171-.48.172-.549.069-.034-.069 0-.137.069-.206.617-.514.617-.926.548-1.508-.034-.378-.308-.618-.583-.618-1.2 0-2.914 2.674-2.674 4.629.103.754.549 1.646 1.509 1.646.308 0 .65-.103.96-.24.5-.264.799-.47 1.097-.8-.073-.885.704-2.046 1.851-2.046.515 0 .926.205.96.583.068.514-.377.582-.514.582s-.378-.034-.378-.17c-.034-.138.309-.07.275-.378-.035-.206-.24-.274-.446-.274-.72 0-1.131.994-1.029 1.611.035.275.172.549.447.549.205 0 .514-.31.617-.755.068-.308.343-.514.583-.514.102 0 .17.034.205.171v.138c-.034.137-.137.548-.102.651 0 .069.034.171.17.171.092 0 .436-.18.777-.459.117-.59.253-1.298.253-1.357.034-.24.137-.48.617-.48.103 0 .171.034.205.171v.138l-.136.617c.445-.583 1.097-.994 1.508-.994.172 0 .309.102.309.274 0 .103 0 .274-.069.446-.137.377-.309.96-.412 1.474 0 .137.035.274.207.274.171 0 .685-.206 1.096-.754l.007-.004c-.002-.068-.007-.134-.007-.202 0-.411.035-.754.104-.994.068-.274.411-.514.617-.514.103 0 .205.069.205.171 0 .035 0 .103-.034.137-.137.446-.24.857-.24 1.269 0 .24.034.582.102.788 0 .034.035.069.07.069.068 0 .548-.445.89-1.028-.308-.206-.48-.549-.48-.96 0-.72.446-1.097.858-1.097.343 0 .617.24.617.72 0 .308-.103.65-.274.96h.102a.77.77 0 0 0 .584-.24.293.293 0 0 1 .134-.117c.335-.425.83-.74 1.41-.74.48 0 .924.205.959.582.068.515-.378.618-.515.618l-.002-.002c-.138 0-.377-.035-.377-.172 0-.137.309-.068.274-.376-.034-.206-.24-.275-.446-.275-.686 0-1.13.891-1.028 1.611.034.275.171.583.445.583.206 0 .515-.308.652-.754.068-.274.343-.514.583-.514.103 0 .17.034.205.171 0 .069 0 .206-.137.652-.17.308-.171.48-.137.617.034.274.171.48.309.583.034.034.068.102.068.102 0 .069-.034.138-.137.138-.034 0-.068 0-.103-.035-.514-.205-.72-.548-.789-.891-.205.24-.445.377-.72.377-.445 0-.89-.411-.96-.926a1.609 1.609 0 0 1 .075-.649c-.203.13-.422.203-.623.203h-.17c-.447.652-.927 1.098-1.27 1.303a.896.896 0 0 1-.377.104c-.068 0-.171-.035-.205-.104-.095-.152-.156-.392-.193-.667-.481.527-1.145.805-1.453.805-.343 0-.548-.206-.582-.55v-.376c.102-.754.377-1.2.377-1.337a.074.074 0 0 0-.069-.07c-.24 0-1.028.824-1.166 1.373l-.103.445c-.068.309-.377.515-.582.515-.103 0-.172-.035-.206-.172v-.137l.046-.233c-.435.31-.87.508-1.075.508-.308 0-.48-.172-.514-.412-.206.274-.445.412-.754.412-.352 0-.696-.24-.862-.593-.244.275-.523.553-.852.764-.48.309-1.028.549-1.68.549-.582 0-1.097-.309-1.371-.583-.412-.377-.651-.96-.686-1.509-.205-1.68.823-3.84 2.4-4.8.378-.205.755-.343 1.132-.343zm9.77 3.291c-.104 0-.172.172-.172.343 0 .274.137.583.309.755a1.74 1.74 0 0 0 .102-.583c0-.343-.137-.515-.24-.515z"/>
    </g>

    <g id="codePen" xmlns="http://www.w3.org/2000/svg" viewBox="0 0 24 24">
        <path d="M18.144 13.067v-2.134L16.55 12zm1.276 1.194a.628.628 0 0 1-.006.083l-.005.028-.011.053-.01.031a.443.443 0 0 1-.017.047l-.014.03a.78.78 0 0 1-.021.043l-.019.03a.57.57 0 0 1-.08.1l-.026.025a.602.602 0 0 1-.036.03l-.029.022-.01.008-6.782 4.522a.637.637 0 0 1-.708 0L4.864 14.79l-.01-.008a.599.599 0 0 1-.065-.052l-.026-.025-.032-.034-.021-.028a.588.588 0 0 1-.067-.11l-.014-.031a.644.644 0 0 1-.017-.047l-.01-.03c-.004-.018-.008-.036-.01-.054l-.006-.028a.628.628 0 0 1-.006-.083V9.739a.58.58 0 0 1 .006-.083l.005-.027.011-.054.01-.03a.574.574 0 0 1 .12-.217l.031-.034.026-.025a.62.62 0 0 1 .065-.052l.01-.008 6.782-4.521a.638.638 0 0 1 .708 0l6.782 4.521.01.008.03.022.035.03c.01.008.017.016.026.025a.545.545 0 0 1 .08.1l.019.03a.633.633 0 0 1 .021.043l.014.03c.007.016.012.032.017.047l.01.031c.004.018.008.036.01.054l.006.027a.619.619 0 0 1 .006.083zM12 0C5.373 0 0 5.372 0 12c0 6.627 5.373 12 12 12 6.628 0 12-5.372 12-12 0-6.627-5.372-12-12-12m0 10.492L9.745 12 12 13.51 14.255 12zm.638 4.124v2.975l4.996-3.33-2.232-1.493zm-6.272-.356 4.996 3.33v-2.974l-2.764-1.849zm11.268-4.52-4.996-3.33v2.974l2.764 1.85zm-6.272-.356V6.41L6.366 9.74l2.232 1.493zm-5.506 1.549v2.134L7.45 12Z"/>
    </g>

    <g id="cpanel" xmlns="http://www.w3.org/2000/svg" viewBox="0 0 24 24">
        <path d="M4.586 9.346a.538.538 0 0 0-.34.113.561.561 0 0 0-.197.299L2.74 14.654h.922a.528.528 0 0 0 .332-.113.561.561 0 0 0 .2-.291l.968-3.604h.744a.677.677 0 0 1 .317.077.703.703 0 0 1 .24.199.732.732 0 0 1 .129.281.65.65 0 0 1-.01.326.698.698 0 0 1-.676.526h-.385a.538.538 0 0 0-.337.113.561.561 0 0 0-.2.291l-.24.896h1.201a1.939 1.939 0 0 0 1.62-.867 1.988 1.988 0 0 0 .265-.586l.027-.1a1.854 1.854 0 0 0 .026-.907 1.973 1.973 0 0 0-1.031-1.34 1.875 1.875 0 0 0-.88-.21H4.587zm18.447 0a.401.401 0 0 0-.25.082.377.377 0 0 0-.14.217l-1.334 5.01a1.7 1.7 0 0 0 .57-.096 1.806 1.806 0 0 0 .496-.266 1.74 1.74 0 0 0 .385-.408 1.648 1.648 0 0 0 .234-.531l.996-3.696a.23.23 0 0 0-.045-.217.246.246 0 0 0-.2-.095h-.712zM8.381 10.643l-.133.503a.564.564 0 0 0-.006.26.544.544 0 0 0 .1.221.552.552 0 0 0 .185.154.53.53 0 0 0 .252.06h2.157a.101.101 0 0 1 .084.038.098.098 0 0 1 .015.088l-.02.072-.324 1.201-.013.055a.172.172 0 0 1-.067.105.205.205 0 0 1-.127.04H9.178a.147.147 0 0 1-.12-.057.136.136 0 0 1-.027-.13c.022-.074.071-.112.147-.112h.808a.53.53 0 0 0 .332-.112.564.564 0 0 0 .2-.293l.132-.498H8.84a1.131 1.131 0 0 0-.38.065 1.152 1.152 0 0 0-.323.176 1.194 1.194 0 0 0-.256.271 1.052 1.052 0 0 0-.156.346l-.028.1a1.095 1.095 0 0 0-.013.533 1.203 1.203 0 0 0 .212.464 1.141 1.141 0 0 0 .918.453l2.157.006a.899.899 0 0 0 .875-.67l.525-1.95a1.101 1.101 0 0 0 .01-.514 1.114 1.114 0 0 0-.205-.444 1.149 1.149 0 0 0-.377-.312 1.048 1.048 0 0 0-.498-.12H8.38zm-6.397.01a1.924 1.924 0 0 0-.638.107 1.989 1.989 0 0 0-.553.295 1.962 1.962 0 0 0-.7 1.045l-.027.1a1.936 1.936 0 0 0-.023.905 1.955 1.955 0 0 0 .361.786 1.986 1.986 0 0 0 .668.554 1.875 1.875 0 0 0 .88.21h.464l.266-.983a.23.23 0 0 0-.043-.215.239.239 0 0 0-.198-.096h-.423a.702.702 0 0 1-.319-.074.67.67 0 0 1-.24-.195.732.732 0 0 1-.127-.281.706.706 0 0 1 .01-.34.73.73 0 0 1 .256-.377.675.675 0 0 1 .42-.14h.697a.538.538 0 0 0 .338-.114.561.561 0 0 0 .199-.297l.232-.89h-1.5zm11.08 0-.982 3.689a.23.23 0 0 0 .045.217.238.238 0 0 0 .195.095h.711a.413.413 0 0 0 .248-.08.363.363 0 0 0 .143-.21l.644-2.41h.745a.678.678 0 0 1 .318.075.708.708 0 0 1 .238.2.735.735 0 0 1 .129.28.65.65 0 0 1-.01.327l-.398 1.506a.243.243 0 0 0 .24.312h.713a.403.403 0 0 0 .244-.08.366.366 0 0 0 .143-.213l.332-1.248a1.897 1.897 0 0 0 .029-.908 1.955 1.955 0 0 0-.361-.79 1.987 1.987 0 0 0-.668-.554 1.889 1.889 0 0 0-.885-.209h-1.813zm5.793 0a1.458 1.458 0 0 0-.488.081 1.489 1.489 0 0 0-.752.58 1.493 1.493 0 0 0-.205.454l-.406 1.505a1.018 1.018 0 0 0-.016.508 1.139 1.139 0 0 0 .205.446 1.095 1.095 0 0 0 .377.312 1.071 1.071 0 0 0 .498.115h2.502a.528.528 0 0 0 .332-.113.561.561 0 0 0 .2-.291l.21-.791h-2.748a.2.2 0 0 1-.191-.252l.299-1.127a.34.34 0 0 1 .113-.162.281.281 0 0 1 .18-.064h1.232a.153.153 0 0 1 .147.193l-.026.1c-.022.075-.071.113-.146.113h-.81a.538.538 0 0 0-.339.111.526.526 0 0 0-.191.293l-.133.49h2.004a.887.887 0 0 0 .547-.181.864.864 0 0 0 .32-.483l.12-.45a1.11 1.11 0 0 0 .013-.513 1.076 1.076 0 0 0-.203-.443 1.146 1.146 0 0 0-.375-.313 1.047 1.047 0 0 0-.498-.119h-1.772Z"/>
    </g>

    <g id="plesk" xmlns="http://www.w3.org/2000/svg" viewBox="0 0 24 24">
        <path d="M6.102 7.021v7.353h.736V7.02zm13.655.01v7.343h.735V7.032zm.735 4.633 2.479 2.71h1.019l-2.574-2.731L24 9.122h-.987zm-4.008-2.636c-.536 0-.972.125-1.31.378-.337.252-.505.609-.505 1.07 0 .26.049.474.148.642.1.168.226.306.38.415.154.108.328.198.522.267.194.07.39.134.59.19.175.049.342.1.5.152.158.052.297.117.418.194a.94.94 0 0 1 .286.278c.07.109.104.244.104.405 0 .21-.095.388-.286.535-.19.147-.484.221-.88.221-.609 0-1.104-.245-1.485-.735l-.572.504c.286.315.59.54.913.678.322.136.693.204 1.11.204.272 0 .527-.033.766-.1a1.89 1.89 0 0 0 .621-.294c.176-.13.316-.288.419-.478.102-.189.153-.402.153-.64 0-.26-.051-.474-.153-.646a1.46 1.46 0 0 0-.402-.436 2.284 2.284 0 0 0-.545-.289 13.019 13.019 0 0 0-.594-.205c-.161-.049-.317-.1-.467-.152a2.013 2.013 0 0 1-.397-.184.923.923 0 0 1-.275-.252.598.598 0 0 1-.104-.357c0-.203.075-.371.225-.504.15-.133.413-.2.787-.2.293 0 .546.055.759.163.213.109.41.278.594.51l.011.01.54-.494c-.272-.315-.556-.535-.853-.661a2.586 2.586 0 0 0-1.018-.19zm-14.688.041c-.588 0-1.187.095-1.796.284v7.626h.725v-2.72c.182.048.364.087.546.115a3.539 3.539 0 0 0 1.586-.11 2.416 2.416 0 0 0 1.534-1.308c.16-.336.241-.739.241-1.208 0-.385-.067-.742-.2-1.071a2.42 2.42 0 0 0-.572-.851 2.636 2.636 0 0 0-.898-.557 3.26 3.26 0 0 0-1.166-.2zm8.886 0c-.322 0-.627.055-.914.163-.287.11-.54.275-.756.5a2.391 2.391 0 0 0-.515.845c-.126.34-.189.74-.189 1.202 0 .35.052.683.157.998.106.315.263.596.473.84.21.246.473.44.788.583.315.144.683.216 1.103.216.455 0 .844-.068 1.166-.205.322-.137.605-.338.85-.604l-.44-.462a1.858 1.858 0 0 1-.683.488 2.226 2.226 0 0 1-.84.153c-.554 0-.992-.175-1.314-.526-.322-.35-.493-.822-.514-1.417h3.939c.013-.904-.176-1.592-.568-2.064-.392-.473-.973-.71-1.743-.71zm.031.62c.26 0 .487.04.683.121.196.08.355.187.478.32.122.133.217.295.284.484.066.189.1.392.1.609H9.074a2.126 2.126 0 0 1 .494-1.103c.111-.126.264-.23.456-.31.193-.08.422-.12.688-.12zM1.86 9.7c.616 0 1.094.188 1.434.563.34.374.51.866.51 1.475 0 .659-.185 1.165-.552 1.518-.368.354-.863.53-1.486.53-.168 0-.342-.018-.52-.057a4.836 4.836 0 0 1-.52-.142V9.868a2.82 2.82 0 0 1 .557-.132A4.56 4.56 0 0 1 1.86 9.7zm2.377 6.588v.692H8.66v-.692z"/>
    </g>

    <g id="vultr" xmlns="http://www.w3.org/2000/svg" viewBox="0 0 24 24">
        <path d="M8.36 2.172A1.194 1.194 0 0 0 7.348 1.6H1.2A1.2 1.2 0 0 0 0 2.8a1.211 1.211 0 0 0 .182.64l11.6 18.4a1.206 1.206 0 0 0 2.035 0l3.075-4.874a1.229 1.229 0 0 0 .182-.64 1.211 1.211 0 0 0-.182-.642zm10.349 8.68a1.206 1.206 0 0 0 2.035 0L21.8 9.178l2.017-3.2a1.211 1.211 0 0 0 .183-.64 1.229 1.229 0 0 0-.183-.64l-1.6-2.526a1.206 1.206 0 0 0-1.016-.571h-6.148a1.2 1.2 0 0 0-1.201 1.2 1.143 1.143 0 0 0 .188.64z"/>
    </g>

    <g id="python" xmlns="http://www.w3.org/2000/svg" viewBox="0 0 24 24">
        <path d="m14.25.18.9.2.73.26.59.3.45.32.34.34.25.34.16.33.1.3.04.26.02.2-.01.13V8.5l-.05.63-.13.55-.21.46-.26.38-.3.31-.33.25-.35.19-.35.14-.33.1-.3.07-.26.04-.21.02H8.77l-.69.05-.59.14-.5.22-.41.27-.33.32-.27.35-.2.36-.15.37-.1.35-.07.32-.04.27-.02.21v3.06H3.17l-.21-.03-.28-.07-.32-.12-.35-.18-.36-.26-.36-.36-.35-.46-.32-.59-.28-.73-.21-.88-.14-1.05-.05-1.23.06-1.22.16-1.04.24-.87.32-.71.36-.57.4-.44.42-.33.42-.24.4-.16.36-.1.32-.05.24-.01h.16l.06.01h8.16v-.83H6.18l-.01-2.75-.02-.37.05-.34.11-.31.17-.28.25-.26.31-.23.38-.2.44-.18.51-.15.58-.12.64-.1.71-.06.77-.04.84-.02 1.27.05zm-6.3 1.98-.23.33-.08.41.08.41.23.34.33.22.41.09.41-.09.33-.22.23-.34.08-.41-.08-.41-.23-.33-.33-.22-.41-.09-.41.09zm13.09 3.95.28.06.32.12.35.18.36.27.36.35.35.47.32.59.28.73.21.88.14 1.04.05 1.23-.06 1.23-.16 1.04-.24.86-.32.71-.36.57-.4.45-.42.33-.42.24-.4.16-.36.09-.32.05-.24.02-.16-.01h-8.22v.82h5.84l.01 2.76.02.36-.05.34-.11.31-.17.29-.25.25-.31.24-.38.2-.44.17-.51.15-.58.13-.64.09-.71.07-.77.04-.84.01-1.27-.04-1.07-.14-.9-.2-.73-.25-.59-.3-.45-.33-.34-.34-.25-.34-.16-.33-.1-.3-.04-.25-.02-.2.01-.13v-5.34l.05-.64.13-.54.21-.46.26-.38.3-.32.33-.24.35-.2.35-.14.33-.1.3-.06.26-.04.21-.02.13-.01h5.84l.69-.05.59-.14.5-.21.41-.28.33-.32.27-.35.2-.36.15-.36.1-.35.07-.32.04-.28.02-.21V6.07h2.09l.14.01zm-6.47 14.25-.23.33-.08.41.08.41.23.33.33.23.41.08.41-.08.33-.23.23-.33.08-.41-.08-.41-.23-.33-.33-.23-.41-.08-.41.08z"/>
    </g>

    <g id="flask" xmlns="http://www.w3.org/2000/svg" viewBox="0 0 24 24">
        <path d="M7.172 20.36c-.914-.72-1.89-1.41-2.556-2.38-1.402-1.712-2.482-3.694-3.22-5.777-.446-1.355-.6-2.808-1.174-4.11-.602-.944.103-1.978 1.138-2.28.46-.087 1.272-.522.293-.211-.878.644-.963-.585-.063-.662.615-.082.84-.585.63-1.037-.66-.43 1.6-.903.463-1.544C1.5 1.08 4.34.835 3.64 2.285 3.473 3.4 5.624 2.08 5.125 3.368c.507.619 1.9.14 1.865 1.009.74.05.993.672 1.687.72.72.325 2.022.58 2.266 1.39-.713.566-2.364-1.165-2.443.398.215 2.31.16 4.689 1.004 6.888.4 1.332 1.37 2.38 2.244 3.418.837 1.016 1.971 1.73 3.127 2.333 1.014.478 2.107.795 3.213.994.448-.343 1.24-1.617 1.938-1.08.033.604-1.388 1.263-.067 1.196.776-.234 1.314.6 1.953-.152.588.697 2.446-.446 2.027.98-.566.364-1.392.144-1.959.646-.935-.467-1.68.418-2.715.306a19.86 19.86 0 0 1-3.484.29c-1.912-.15-3.865-.214-5.684-.88-1.024-.297-2.023-.881-2.924-1.464zm1.615.7c1 .432 1.978.888 3.074 1.026 1.74.24 3.537.614 5.283.274-.79-.357-1.608.14-2.395-.255-.944.203-1.957-.052-2.917-.177-1.092-.486-2.27-.82-3.291-1.452-1.277-.466.66.598 1.005.685.798.453-.877-.233-1.114-.421-.668-.375-.754-.297-.066.084.139.08.276.166.42.235zm-1.904-1.346c.97.359-.004-.682-.45-.622-.196-.341-.751-.557-.36-.74-.704.244-.737-.93-1.07-.763-.744-.235-.29-1.07-1.176-1.58-.081-.54-.882-1.008-1.138-1.822-.113-.416-.905-1.613-.418-.5.414 1.072 1.143 1.99 1.75 2.907.47.873 1.027 1.786 1.885 2.33.29.278.568.703.977.79zM4.09 16.647c.033-.146.177.317 0 0zm3.954 3.497c.215-.096-.31-.12 0 0zm.526.192c-.054-.265-.24.148 0 0zm.66.275c.312-.3-.484-.188 0 0zm1.127.63c.191-.282-.61-.107 0 0zM8.19 19.728c.487-.315-.63-.004 0 0zm.494.246c-.014-.166-.176.075 0 0zm2.47 1.542c.397.25 2.32.55 1.115.103-.2.042-2.23-.574-1.116-.103zm-3.921-3.054c-.04-.167-.616-.185 0 0zm1.15.67c.3-.21-.621-.16 0 0zm.966.593c.43-.162-.696-.163 0 0zm-2.584-1.773c.466.358 1.88.046.714-.213-.53-.283-1.727-.476-.912.17zm3.24 1.978c.193-.33-.815-.19 0 0zm-.984-.783c1.14.323-.958-.72-.281-.118l.15.068.13.05zm1.973 1.14c1.08.01-.975-.147 0 0zm-4.644-2.96c-.042-.2-.266.018 0 0zm6.47 3.985c.028-.363-.353.27 0 0zm-4.63-2.856c-.064-.191-.336-.008 0 0zm-1.738-1.254c.62-.037-.848-.273 0 0zm-2.06-1.332c-.077-.297-.674-.534 0 0zm5.407 3.435c-.114-.13-.054.028 0 0zm3.366 2.065c-.01-.197-.183.075 0 0zm-3.664-2.373c.06-.255-.528-.077 0 0zm-2.506-1.592c.46-.05-.74-.311 0 0zm4.241 2.637c.718-.285-.7-.14 0 0zM9.03 18.545c.827.106-.985-.563-.181-.06zm2.876 1.768c.773-.462.518 1.082 1.311.13.782-.57-.675.707.29.103.696-.467 1.726.22 2.376.445.468-.023.923.405 1.403.145.923-.25-1.806-.37-1.09-.81-.845.245-1.47-.294-1.885-.835-.948-.22-2.044-.703-2.517-1.542-.192-.315.28.044-.166-.47-.57-.508-.856-1.085-1.24-1.702-.457-.244-.51-.963-.557-.024.004-.593-.553-.992-.688-.826-.002-.571.595-.285.176-.707-.09-.592-.386-1.21-.475-1.877-.138-.322-.02-1.011-.473-.282-.165.77-.055-.947.202-.38.337-.58-.12-.51-.14-.43.22-.488.14-1.18-.057-.916.117-.517.185-1.902-.175-1.656.218-.54.414-2.473-.534-1.736-.384.005-1.048.14-1.363.296.986.543-.1.196-.5.11-.052.502-.45.285-.946.29.793.098-.386.81-.841.534-.59.282.51.987.012 1.205.06.328-.905-.12-.83.64-.573-.241-.078.9.209.514.975.264.686.866.71 1.437-.158.333-.784-.783-.14-.731-.507-.827-.561-.3-.984.085-.1.028 1.079.547.34.803.65.1.668.67.8 1.03.39.407.31-.45.779.04-.296-.436-1.567-1.228-.544-.974-.005-.44-.185-.793.129-.784.31-.562-.325 1.387.375.672.193-.085.24-.563.59.045.505.498.182.858-.531.403.127.433.954.587.799 1.265.165.595.395.376.596.342.158.578.247.153.255-.123.72.155.552.58.778.88.497.224-.712-1.522.142-.526.898.81.337 1.15-.47 1.02.51-.041.675.69 1.313.664.582.277.975 1.34-.027.897-.348-.313-1.58-.7-.573-.104.929.43 1.665.688 2.561 1.227.64.458.918.982 1.16 1.086-.538.257-1.623-.206-.817-.348-.503-.091-1.068-.345-.587.28.41.343 1.45.306 1.637.345-.159.348-.43.376.006.403-.486.26.156.3.201.448zm-.994-2.808c-.296-.31-.373-.89-.053-.385.164.066.525.947.053.385zm3.238 2.057c.185-.011.006.14 0 0zm-3.706-2.816c-.01-.468.107.36 0 0zm-.322-.433c-.372-.72.47.204 0 0zm-3.9-2.692c.219-.06.108.374 0 0zm3.104 1.682c.134-.504.158.424 0 0zm-2.192-1.525c-.155-.278.323.26 0 0zm1.882.604c-.352-.79.25-.432.078.13zM5.77 12.217c-.158-.26-.418-1.02-.334-1.252.076.378.804 1.627.357.518-.494-.93.59.302.702.534.05.23-.305-.063-.064.478-.44-.617-.26.34-.661-.278zm-1.003-.691c.04-.603.23.413 0 0zm.45.155c.216-.455.366.634 0 0zm-1.084-.84c-.374-.37-.644-.713.017-.23.255.01-.566-.778.06-.25.66.12.327 1.082-.077.48zm.57-.015c.217-.215.115.212 0 0zm.35.113c-.328-.617.4.258 0 0zm-.697-.667c-1.086-.966 1.365.506.177.18zm3.11 1.808c-.47-.282-.123-1.984.037-.82.457-.148-.025.6.315.594-.053.473-.206.643-.35.226zm1.15.68c.048-.513.099.35 0 0zm-.2-.198c.054-.22.007.258 0 0zM4.57 9.955c-.697-.963 2.027.973.447.244-.165-.043-.364-.06-.447-.244zm2.216 1.175c-.066-.81.147.134 0 0zm1.682 1.079c.13-.462.01.305 0 0zM4.676 9.587c.415-.088 1.718.729.52.234-.132-.148-.416-.08-.52-.234zm3.56 1.775c.044-.83.248-.495.002.118zM4.985 9.299c.169-.248-.45-1.12.089-.313.232.185.672.31.283.387.61.539-.15.146-.372-.074zm3.075 1.804c.117-.944.103.553 0 0zM4.632 8.427c.129-.055.068.172 0 0zm.802.478c.206-.434.38.483 0 0zm2.263 1.259c-.002-.167.043.242 0 0zm-.131-.29c-.314-.776.292.41 0 0zm-.193-.51c-.053-.32.18.404 0 0zm.314-.51c-.216-.38.272-1.673.326-.87-.227.625-.065.975.093.136.293-.66-.063 1.303-.42.735zm.322-1.923c.094-.115.02.139 0 0zM7.47 17.544c-.128-.111.016.07 0 0zm1.11.56c.615.16.612-.095.055-.17-.3-.28-1.246-.575-.4-.035.057.142.235.139.344.206zM6.389 16.65c.34.253 1.28.719.484.096.269-.312-.514-.478-.254-.686-.66-.404-.52-.368-.058-.356-.794-.354.114-.328.07-.51-.305-.06-1.52-.54-.804.04-.726-.37-.173.138-.392.084-.743-.202.66.565-.118.375.425.337 1.146.864.18.357-.128.183.69.46.892.6zm1.16.667c1.41.454-.691-.556 0 0zm5.94 3.598c.02-.28-.193.24 0 0zm.611.257c.325-.315.013.503.54-.077.005-.415-.017-.66-.606-.156-.162.09-.234.473.066.233zm-9.692-6.087c-.1-.393-.7-.39 0 0zm.652.428c-.242-.402-.864-.364 0 0zm3.71 2.237c.362.32 1.662.236.44.04-.182-.27-1.151-.204-.44-.04zm5.097 3.149c.558-.468-.54.208 0 0zm1.16.796c.003-.15-.24.066 0 0zm.001-.21c.617-.654-.598.039 0 0zM2.805 13.743c-.526-.75-.327-1.088-.835-1.7-.096-.47-.87-1.533-.4-.406.43.659.558 1.679 1.235 2.106zm12.03 7.534c1.135-.734-.466-.32 0 0zm.866.34c.57-.488-.36-.102 0 0zM4.215 14.255c.163-.242-.42-.031 0 0zm11.305 7.129c.551-.355-.126-.3-.1.032zm-7.47-4.71c-.02-.24-.291.02 0 0zm.46.267c-.145-.297-.224.047 0 0zm7.894 4.684c.705-.51-.428-.098-.148.096zm-.27-.13c.574-.482-.607.213 0 0zm1.38.918c.386-.258-.469-.083 0 0zM4.57 14.08c.517.116 2.066 1.274 1.152.08-.468-.138-.187-1.283-.665-1.08.32.535.264.763-.41.426-.845-.413-.474.204-.31.374-.224.052.299.196.233.2zm-2.356-1.86c.092-.383-.853-2.107-.446-.864.146.26.13.754.446.864zm4.324 2.666c-.266-.223-.013-.032 0 0zm.656.152c0-.405-.725-.164 0 0zm5.681 3.583c-.108-.278-.428-.006 0 0zm.273.199c-.04-.155-.157.03 0 0zm2.252 1.42c.216-.16-.27-.02 0 0zM3.39 12.52c.62-.24-.664-.17 0 0zm8.984 5.662c-.007-.401-.395.1 0 0zm-9.23-6.231c.399-.135-.367-.09 0 0zm1.156.56c-.007-.133-.122.05 0 0zm14.09 8.64c.512-.104 1.678.26 1.866-.136-.62-.015-2.15-.438-2.222.1l.136.023.22.013zM4.667 12.603c.009-.407-.317-.015 0 0zM1.63 10.495c-.138-.775-.525-.118 0 0zm.724.182c.009-.25-.663-.224 0 0zm.414.203c-.12-.097-.094.122 0 0zm2.605 1.67c.122-.112-.29-.083 0 0zm-2.88-2.128c-.07-.585-.84-.088 0 0zm-1.486-.964c-.02-.27-.144.102 0 0zm.22-.167c-.035-.32-.19.04 0 0zm1.22.729c.518-.203-.94-.42-.104-.04zm16.334 10.089c.33-.303-.42-.094 0 0zm1.974 1.023c.132-.392-.334.05 0 0zM2.573 9.38c.055-.38-.41.075 0 0zM.837 8.218c-.093-.535-.08-1.474.812-1.156-1.191.236.824 1.48.57.498.5.024.98-.296.716.19.987-.11 1.67-.964 2.624-.845.742-.098 1.554-.172 2.354-.471.658-.048 1.29-.756.93-1.175-.896-.076-1.835.036-2.827.233-1.098.228-2.096.662-3.205.849-1.08.145.217.4-.092.456-.564.196.672.328-.073.534-.46-.088-.94-.246-.743-.73-1.035.133-1.945.563-1.127 1.616h.06zm2.494-1.27c.243-.894 1.3.735.398.118-.108-.08-.285-.146-.398-.12zm.047-.434c.35-.26.186.146 0 0zm.445.008c.032-.411 1.018.218.163.148zm.608-.245c.222-.26.064.23 0 0zm.156-.104c.37-.444 2.095-.283.832-.043-.338-.255-.598.15-.832.043zm2.25-.347c-.055-1.214 1.119.432 0 0zm.64-.004c.233-.612.906-.245.108-.123.017.065-.024.316-.108.123zM2.322 9.067c.697-.427-.741-.37 0 0zm.515.144c.245-.26-.531-.106 0 0zm-1.52-1.08c.399-.305-.471-.116 0 0zm20.602 12.89c.012-.355-.304.16 0 0zm-2.093-1.43c.06-.408-.27.037 0 0zm2.67 1.568c.557 0 1.688-.173.475-.173-.19.03-1.109.024-.476.173zM3.29 8.959c.45-.03.706-.497-.087-.47-1.23-.127 1.084.42-.158.264-.167.11.236.237.245.207zm.398.202c-.048-.29-.14.154 0 0zm.47-1.257c.197-.243-.27-.065 0 0zm-1.5-2.508c.806-.274 1.907-.581 2.287.135-.387-.466-.156-.924.21-.243.516.689.775-.313.438-.545.383.476.819.7.257.03.61-.734-1.223.097-1.64.088-.2.09-2.071.477-1.551.535zm.472-.903c.46-.347 1.588.206.864-.345-.07-.062-1.586.418-.864.345zm1.674.069c.538.013-.231-.722.409-.39-.105-.343-.746-.407-1.06-.544-.176.314.36.938.65.934zm-1.38-1.52c.186-.252-.326.128 0 0zm.684.164c.866-.115-.22-.373-.174-.01zm-1.277-1c-.61-.796 1.146.134.527-.7-.522-.415-1.023.468-.527.7zm7.824 4.215c.28-.496-1.155-.668-.188-.175.09.03.07.21.188.175z"/>
    </g>

    <g id="goLang" xmlns="http://www.w3.org/2000/svg" viewBox="0 0 24 24">
        <path d="M1.811 10.231c-.047 0-.058-.023-.035-.059l.246-.315c.023-.035.081-.058.128-.058h4.172c.046 0 .058.035.035.07l-.199.303c-.023.036-.082.07-.117.07zM.047 11.306c-.047 0-.059-.023-.035-.058l.245-.316c.023-.035.082-.058.129-.058h5.328c.047 0 .07.035.058.07l-.093.28c-.012.047-.058.07-.105.07zm2.828 1.075c-.047 0-.059-.035-.035-.07l.163-.292c.023-.035.07-.07.117-.07h2.337c.047 0 .07.035.07.082l-.023.28c0 .047-.047.082-.082.082zm12.129-2.36c-.736.187-1.239.327-1.963.514-.176.046-.187.058-.34-.117-.174-.199-.303-.327-.548-.444-.737-.362-1.45-.257-2.115.175-.795.514-1.204 1.274-1.192 2.22.011.935.654 1.706 1.577 1.835.795.105 1.46-.175 1.987-.77.105-.13.198-.27.315-.434H10.47c-.245 0-.304-.152-.222-.35.152-.362.432-.97.596-1.274a.315.315 0 0 1 .292-.187h4.253c-.023.316-.023.631-.07.947a4.983 4.983 0 0 1-.958 2.29c-.841 1.11-1.94 1.8-3.33 1.986-1.145.152-2.209-.07-3.143-.77-.865-.655-1.356-1.52-1.484-2.595-.152-1.274.222-2.419.993-3.424.83-1.086 1.928-1.776 3.272-2.02 1.098-.2 2.15-.07 3.096.571.62.41 1.063.97 1.356 1.648.07.105.023.164-.117.2m3.868 6.461c-1.064-.024-2.034-.328-2.852-1.029a3.665 3.665 0 0 1-1.262-2.255c-.21-1.32.152-2.489.947-3.529.853-1.122 1.881-1.706 3.272-1.95 1.192-.21 2.314-.095 3.33.595.923.63 1.496 1.484 1.648 2.605.198 1.578-.257 2.863-1.344 3.962-.771.783-1.718 1.273-2.805 1.495-.315.06-.63.07-.934.106zm2.78-4.72c-.011-.153-.011-.27-.034-.387-.21-1.157-1.274-1.81-2.384-1.554-1.087.245-1.788.935-2.045 2.033-.21.912.234 1.835 1.075 2.21.643.28 1.285.244 1.905-.07.923-.48 1.425-1.228 1.484-2.233z"/>
    </g>

    <g id="nodeJS" xmlns="http://www.w3.org/2000/svg" viewBox="0 0 24 24">
        <path d="M11.998 24c-.321 0-.641-.084-.922-.247L8.14 22.016c-.438-.245-.224-.332-.08-.383.585-.203.703-.25 1.328-.604.065-.037.151-.023.218.017l2.256 1.339a.29.29 0 0 0 .272 0l8.795-5.076a.277.277 0 0 0 .134-.238V6.921a.283.283 0 0 0-.137-.242l-8.791-5.072a.278.278 0 0 0-.271 0L3.075 6.68a.284.284 0 0 0-.139.241v10.15a.27.27 0 0 0 .139.235l2.409 1.392c1.307.654 2.108-.116 2.108-.89V7.787c0-.142.114-.253.256-.253h1.115c.139 0 .255.112.255.253v10.021c0 1.745-.95 2.745-2.604 2.745-.508 0-.909 0-2.026-.551L2.28 18.675a1.856 1.856 0 0 1-.922-1.604V6.921c0-.659.353-1.275.922-1.603L11.075.236a1.925 1.925 0 0 1 1.848 0l8.794 5.082c.57.329.924.944.924 1.603v10.15a1.86 1.86 0 0 1-.924 1.604l-8.794 5.078c-.28.163-.599.247-.925.247zm7.101-10.007c0-1.9-1.284-2.406-3.987-2.763-2.731-.361-3.009-.548-3.009-1.187 0-.528.235-1.233 2.258-1.233 1.807 0 2.473.389 2.747 1.607a.254.254 0 0 0 .247.199h1.141a.26.26 0 0 0 .186-.081.257.257 0 0 0 .067-.196c-.177-2.098-1.571-3.076-4.388-3.076-2.508 0-4.004 1.058-4.004 2.833 0 1.925 1.488 2.457 3.895 2.695 2.88.282 3.103.703 3.103 1.269 0 .983-.789 1.402-2.642 1.402-2.327 0-2.839-.584-3.011-1.742a.255.255 0 0 0-.253-.215h-1.137a.252.252 0 0 0-.254.253c0 1.482.806 3.248 4.655 3.248 2.788.001 4.386-1.096 4.386-3.013z"/>
    </g>

    <g id="svelte" xmlns="http://www.w3.org/2000/svg" viewBox="0 0 24 24">
        <path d="M10.354 21.125a4.44 4.44 0 0 1-4.765-1.767 4.109 4.109 0 0 1-.703-3.107 3.898 3.898 0 0 1 .134-.522l.105-.321.287.21a7.21 7.21 0 0 0 2.186 1.092l.208.063-.02.208a1.253 1.253 0 0 0 .226.83 1.337 1.337 0 0 0 1.435.533 1.231 1.231 0 0 0 .343-.15l5.59-3.562a1.164 1.164 0 0 0 .524-.778 1.242 1.242 0 0 0-.211-.937 1.338 1.338 0 0 0-1.435-.533 1.23 1.23 0 0 0-.343.15l-2.133 1.36a4.078 4.078 0 0 1-1.135.499 4.44 4.44 0 0 1-4.765-1.766 4.108 4.108 0 0 1-.702-3.108 3.855 3.855 0 0 1 1.742-2.582l5.589-3.563a4.072 4.072 0 0 1 1.135-.499 4.44 4.44 0 0 1 4.765 1.767 4.109 4.109 0 0 1 .703 3.107 3.943 3.943 0 0 1-.134.522l-.105.321-.286-.21a7.204 7.204 0 0 0-2.187-1.093l-.208-.063.02-.207a1.255 1.255 0 0 0-.226-.831 1.337 1.337 0 0 0-1.435-.532 1.231 1.231 0 0 0-.343.15L8.62 9.368a1.162 1.162 0 0 0-.524.778 1.24 1.24 0 0 0 .211.937 1.338 1.338 0 0 0 1.435.533 1.235 1.235 0 0 0 .344-.151l2.132-1.36a4.067 4.067 0 0 1 1.135-.498 4.44 4.44 0 0 1 4.765 1.766 4.108 4.108 0 0 1 .702 3.108 3.857 3.857 0 0 1-1.742 2.583l-5.589 3.562a4.072 4.072 0 0 1-1.135.499m10.358-17.95C18.484-.015 14.082-.96 10.9 1.068L5.31 4.63a6.412 6.412 0 0 0-2.896 4.295 6.753 6.753 0 0 0 .666 4.336 6.43 6.43 0 0 0-.96 2.396 6.833 6.833 0 0 0 1.168 5.167c2.229 3.19 6.63 4.135 9.812 2.108l5.59-3.562a6.41 6.41 0 0 0 2.896-4.295 6.756 6.756 0 0 0-.665-4.336 6.429 6.429 0 0 0 .958-2.396 6.831 6.831 0 0 0-1.167-5.168Z"/>
    </g>

    <g id="nginx" xmlns="http://www.w3.org/2000/svg" viewBox="0 0 24 24">
        <path d="M12 0 1.605 6v12L12 24l10.395-6V6L12 0zm6 16.59c0 .705-.646 1.29-1.529 1.29-.631 0-1.351-.255-1.801-.81l-6-7.141v6.66c0 .721-.57 1.29-1.274 1.29H7.32c-.721 0-1.29-.6-1.29-1.29V7.41c0-.705.63-1.29 1.5-1.29.646 0 1.38.255 1.83.81l5.97 7.141V7.41c0-.721.6-1.29 1.29-1.29h.075c.72 0 1.29.6 1.29 1.29v9.18H18z"/>
    </g>

    <g id="freeCodeCamp" xmlns="http://www.w3.org/2000/svg" viewBox="0 0 24 24">
        <path d="M19.885 3.906a.621.621 0 0 0-.354.12c-.08.08-.161.196-.161.313 0 .2.236.474.673.923 1.822 1.754 2.738 3.903 2.732 6.494-.007 2.867-.97 5.17-2.844 6.954-.394.353-.556.63-.557.867 0 .116.08.237.16.353a.58.58 0 0 0 .353.162c.434 0 1.04-.512 1.833-1.509 1.542-1.89 2.24-3.978 2.279-6.824.036-2.847-.857-4.777-2.603-6.77-.63-.712-1.153-1.082-1.511-1.083zm-15.769.002c-.358 0-.882.37-1.51 1.083C.858 6.984-.035 8.914.001 11.761c.04 2.846.737 4.933 2.28 6.824.791.997 1.398 1.51 1.832 1.509a.573.573 0 0 0 .352-.162c.08-.116.16-.237.16-.353 0-.237-.162-.514-.556-.866-1.873-1.785-2.837-4.087-2.844-6.955-.006-2.591.91-4.74 2.732-6.494.437-.449.674-.722.673-.923 0-.117-.08-.233-.161-.313a.621.621 0 0 0-.354-.12zm7.056.895s.655 2.081-2.649 6.727c-3.156 4.433 1.045 7.15 1.432 7.386-.281-.18-2.001-1.5.402-5.423.466-.77 1.076-1.47 1.834-3.041 0 0 .67.946.32 2.998-.523 3.101 2.271 2.214 2.314 2.257.976 1.15-.808 3.17-.917 3.233-.108.061 5.096-3.13 1.399-7.935-.253.253-.582 1.442-1.267 1.266-.684-.174 2.125-3.494-2.868-7.468zM9.955 18.916c.023.016.038.024.038.024l-.038-.024z"/>
    </g>

    <g id="codeProject" xmlns="http://www.w3.org/2000/svg" viewBox="0 0 24 24">
        <path d="M19.885 3.906a.621.621 0 0 0-.354.12c-.08.08-.161.196-.161.313 0 .2.236.474.673.923 1.822 1.754 2.738 3.903 2.732 6.494-.007 2.867-.97 5.17-2.844 6.954-.394.353-.556.63-.557.867 0 .116.08.237.16.353a.58.58 0 0 0 .353.162c.434 0 1.04-.512 1.833-1.509 1.542-1.89 2.24-3.978 2.279-6.824.036-2.847-.857-4.777-2.603-6.77-.63-.712-1.153-1.082-1.511-1.083zm-15.769.002c-.358 0-.882.37-1.51 1.083C.858 6.984-.035 8.914.001 11.761c.04 2.846.737 4.933 2.28 6.824.791.997 1.398 1.51 1.832 1.509a.573.573 0 0 0 .352-.162c.08-.116.16-.237.16-.353 0-.237-.162-.514-.556-.866-1.873-1.785-2.837-4.087-2.844-6.955-.006-2.591.91-4.74 2.732-6.494.437-.449.674-.722.673-.923 0-.117-.08-.233-.161-.313a.621.621 0 0 0-.354-.12zm7.056.895s.655 2.081-2.649 6.727c-3.156 4.433 1.045 7.15 1.432 7.386-.281-.18-2.001-1.5.402-5.423.466-.77 1.076-1.47 1.834-3.041 0 0 .67.946.32 2.998-.523 3.101 2.271 2.214 2.314 2.257.976 1.15-.808 3.17-.917 3.233-.108.061 5.096-3.13 1.399-7.935-.253.253-.582 1.442-1.267 1.266-.684-.174 2.125-3.494-2.868-7.468zM9.955 18.916c.023.016.038.024.038.024l-.038-.024z"/>
    </g>





    <g id="autodesk" xmlns="http://www.w3.org/2000/svg" viewBox="0 0 24 24">
        <path d="M6.898.437S7.87.534 8.26 1.505c0 0 1.069 2.526 2.04 4.955 1.42 3.33 3.22 7.615 4.67 11.078H1.167c-.778 0-1.166-.486-1.166-.486.777 1.36 3.012 5.636 3.012 5.636.388.486.777.776 1.36.776 1.264 0 3.208-1.262 3.208-1.262l7.409-4.619c1.412 3.372 2.5 5.98 2.5 5.98H24c.097-.097-9.327-22.446-9.424-22.544-.097-.097-.292-.582-.972-.582zm-.29.875c-.583 0-.778.485-.875.582L.39 14.526c-.291.874-.097 1.943 1.458 1.943h4.177l3.693-8.841A453.32 453.32 0 0 0 7.58 2.38c-.097-.291-.389-1.068-.972-1.068z"/>
    </g>


    <!-- Skills - End -->



    <g id="bar" viewBox="0 0 24 24">
        <rect width="100%" height="100%" rx="2" ry="2" />
    </g>

</svg>