<svg viewBox="0 0 128 128" xmlns="http://www.w3.org/2000/svg">
    <g id="preloaderIcon" width="38" height="38" viewBox="0 0 38 38" xmlns="http://www.w3.org/2000/svg" stroke="#fff">
        <g fill="none" fill-rule="evenodd">
            <g transform="translate(1 1)" stroke-width="2">
                <circle stroke-opacity=".5" cx="18" cy="18" r="18"/>
                <path d="M36 18c0-9.94-8.06-18-18-18">
                    <animateTransform
                        attributeName="transform"
                        type="rotate"
                        from="0 18 18"
                        to="360 18 18"
                        dur="1s"
                        repeatCount="indefinite"/>
                </path>
            </g>
        </g>
    </g>

    <g id="logoIcon" viewBox="0 0 128 128" xml:space="preserve" fill-rule="evenodd" clip-rule="evenodd" stroke-linejoin="round" stroke-miterlimit="2" width="128" height="128">
        <path fill="#b2e7f2" d="M12.93 58.89h102.14v10.22H12.93z"/>
        <path d="M75.88 24.91 114.97 64l-39.09 39.09v13.03L128 64 75.88 11.88v13.03ZM52.12 24.91 13.03 64l39.09 39.09v13.03L0 64l52.12-52.12v13.03Z" fill="#13add0"/>
        <path d="M80.27 2.65H69.36l-21.64 122.7h10.9L80.28 2.65Z" fill="#13add0"/>
    </g>

    <g id="personalAvatarMain" xmlns:xlink="http://www.w3.org/1999/xlink" viewBox="0 0 264 280">
        <defs>
            <path d="M12 160c0 66.27 53.73 120 120 120 66.27 0 120-53.73 120-120h12V0H0v160h12Z" id="c"/>
            <path d="M124 144.61V163h4a72 72 0 0 1 72 72v9H0v-9a72 72 0 0 1 72-72h4v-18.39a56.04 56.04 0 0 1-31.7-44.73A12 12 0 0 1 34 88V74a12 12 0 0 1 10-11.83V56a56 56 0 1 1 112 0v6.17A12 12 0 0 1 166 74v14a12 12 0 0 1-10.3 11.88 56.04 56.04 0 0 1-31.7 44.73Z" id="e"/>
            <circle id="a" cx="120" cy="120" r="120"/>
        </defs>
        <g fill="none" fill-rule="evenodd">
            <g transform="translate(12 40)">
            <mask id="b" fill="#fff">
                <use xlink:href="#a"/>
            </mask>
            <use fill="#E6E6E6" xlink:href="#a"/>
            <g mask="url(#b)" fill="#65C9FF">
                <path d="M0 0h240v240H0z"/>
            </g>
            </g>
            <mask id="d" fill="#fff">
            <use xlink:href="#c"/>
            </mask>
            <g mask="url(#d)">
            <g transform="translate(32 36)">
                <mask id="f" fill="#fff">
                <use xlink:href="#e"/>
                </mask>
                <use fill="#D0C6AC" xlink:href="#e"/>
                <g mask="url(#f)" fill="#EDB98A">
                <path d="M0 0h264v280H0z"/>
                </g>
                <path d="M156 79v23a56 56 0 1 1-112 0V79v15a56 56 0 1 0 112 0V79Z" fill-opacity=".1" fill="#000" mask="url(#f)"/>
            </g>
            <g transform="translate(0 170)">
                <defs>
                <path d="M105.2 29.05H104a72 72 0 0 0-72 72V110h200v-8.95a72 72 0 0 0-72-72h-1.2c.13.99.2 1.99.2 3 0 13.8-12.09 25-27 25s-27-11.2-27-25c0-1.01.07-2.01.2-3Z" id="g"/>
                </defs>
                <mask id="h" fill="#fff">
                <use xlink:href="#g"/>
                </mask>
                <use fill="#E6E6E6" xlink:href="#g"/>
                <g mask="url(#h)" fill="#262E33">
                <path d="M0 0h264v110H0z"/>
                </g>
                <path d="M100.78 29.12A72 72 0 0 0 32 101.05V110h69.36C97.96 97.92 96 83.7 96 68.5c0-14.33 1.74-27.77 4.78-39.38ZM163.64 110H232v-8.95a72 72 0 0 0-67.77-71.88C167.27 40.77 169 54.2 169 68.5c0 15.2-1.96 29.42-5.36 41.5Z" fill="#3A4C5A"/>
                <path d="m181 86 9.56-7.17a4 4 0 0 1 4.85.05L202 84l-21 2Z" fill="#E6E6E6"/>
                <path d="M101 28c-4 19.33-2.33 46.67 5 82H90L76 74l6-9-6-6 19-30c2.03-.63 4.03-.96 6-1ZM163 28c4 19.33 2.33 46.67-5 82h16l14-36-6-9 6-6-19-30a21.45 21.45 0 0 0-6-1Z" fill="#2F4351"/>
                <path d="M156 21.54c6.77 4.6 11 11.12 11 18.35 0 7.4-4.43 14.05-11.48 18.67l-5.94-4.68-4.58.33 1-3.15-.08-.06c6.1-3.15 10.08-8.3 10.08-14.12V21.54Zm-48 0c-6.77 4.6-11 11.12-11 18.35 0 7.4 4.43 14.05 11.48 18.67l5.94-4.68 4.58.33-1-3.15.08-.06c-6.1-3.15-10.08-8.3-10.08-14.12V21.54Z" fill="#F2F2F2"/>
            </g>
            <g fill="#000">
                <path d="M118 149a14 14 0 1 0 28 0" fill-opacity=".7"/>
                <path d="M120 130c0 4.42 5.37 8 12 8s12-3.58 12-8" fill-opacity=".16"/>
                <g fill-opacity=".6">
                <path d="M92.16 112.45c1.85-3.8 6-6.45 10.84-6.45 4.81 0 8.96 2.63 10.82 6.4.55 1.13-.24 2.05-1.03 1.37a15.05 15.05 0 0 0-9.8-3.43c-3.73 0-7.12 1.24-9.55 3.23-.9.73-1.82-.01-1.28-1.12ZM150.16 112.45c1.85-3.8 6-6.45 10.84-6.45 4.81 0 8.96 2.63 10.82 6.4.55 1.13-.24 2.05-1.03 1.37a15.05 15.05 0 0 0-9.8-3.43c-3.73 0-7.12 1.24-9.55 3.23-.9.73-1.82-.01-1.28-1.12Z"/>
                </g>
                <g fill-opacity=".6">
                <path d="m98.77 83.58.9-.4c5.25-2.09 13.2-1.21 18.05 1.12.57.27.18 1.15-.4 1.1-14.92-1.14-24.96 8.15-28.37 14.45-.1.18-.41.2-.49.03-2.3-5.32 4.45-13.98 10.3-16.3ZM165.23 83.58l-.9-.4c-5.25-2.09-13.2-1.21-18.05 1.12-.57.27-.18 1.15.4 1.1 14.92-1.14 24.96 8.15 28.37 14.45.1.18.41.2.49.03 2.3-5.32-4.45-13.98-10.3-16.3Z"/>
                </g>
            </g>
            <defs>
                <path id="i" d="M0 0h264v280H0z"/>
                <path d="M94.25 52.02c.12-.05-.18-.07-.91-.06.89 0 1.2.02.91.06M86.12 36.3c0-.02.01.15 0 0m107.65 34.47a62.9 62.9 0 0 0-1.52-9.86 51.7 51.7 0 0 0-2.49-7.49c-.6-1.48-2.03-3.52-2.2-5.13-.16-1.57 1.07-3.32 1.33-5.16.25-1.79.21-3.66-.16-5.44-.83-4.02-3.59-7.76-7.85-8.8-.95-.24-2.97.05-3.64-.5-.77-.64-1.3-2.8-2-3.68-2-2.47-5.1-4.07-8.37-3.51-2.42.4-1.03.9-2.84-.51-1-.8-1.75-2-2.73-2.85a24.72 24.72 0 0 0-4.9-3.28 50.81 50.81 0 0 0-14.84-4.91c-9.28-1.52-19.2-.2-28.2 2.22a74.58 74.58 0 0 0-13.14 4.74c-1.78.87-2.81 1.58-4.67 1.81-2.93.36-5.41.34-8.18 1.58-8.54 3.82-12.39 12.69-9.06 21.18.66 1.7 1.57 3.2 2.82 4.58 1.52 1.68 2.07 1.35.76 3.28a52.79 52.79 0 0 0-4.96 9.17c-3.53 8.4-4.12 17.87-3.89 26.83.08 3.13.22 6.31.71 9.42.22 1.34.28 3.87 1.29 4.87.5.5 1.24.79 1.96.58 1.71-.47 1.13-1.73 1.17-2.9.2-5.89-.07-11.1 1.32-16.9a44.4 44.4 0 0 1 5-12.04 72.07 72.07 0 0 1 9.8-13.35c.92-.99 1.12-1.4 2.35-1.48.93-.05 2.3.59 3.2.8 2 .5 4 .98 6.03 1.3 3.74.6 7.45.65 11.22.53 7.43-.23 14.88-.75 22.09-2.62 4.78-1.24 9.02-3.47 13.6-5.1.08-.04 1.23-.85 1.43-.82.28.04 1.97 1.82 2.26 2.05 2.23 1.74 4.67 2.48 7.07 3.83 2.96 1.66.1-.72 1.73 1.36.48.6.72 1.72 1.1 2.4 1.22 2.2 2.91 4.11 4.93 5.63 1.96 1.47 4.9 2.18 5.9 4.1.76 1.47 1.02 3.48 1.64 5.06 1.63 4.13 3.78 7.99 5.93 11.88 1.73 3.14 3.62 5.89 3.81 9.47.07 1.25-1.12 8.74 1.78 6.46.43-.34 1.35-4.15 1.54-4.8.77-2.63 1.05-5.38 1.4-8.09.69-5.38.92-10.5.47-15.91" id="k"/>
            </defs>
            <mask id="j" fill="#fff">
                <use xlink:href="#i"/>
            </mask>
            <g mask="url(#j)">
                <g transform="translate(-1)">
                <mask id="l" fill="#fff">
                    <use xlink:href="#k"/>
                </mask>
                <use fill="#28354B" xlink:href="#k"/>
                <g mask="url(#l)" fill="#2C1B18">
                    <path d="M0 0h264v280H0z"/>
                </g>
                <g transform="translate(62 85)">
                    <defs>
                    <filter x="-.8%" y="-2.4%" width="101.5%" height="109.8%" filterUnits="objectBoundingBox" id="m">
                        <feOffset dy="2" in="SourceAlpha" result="shadowOffsetOuter1"/>
                        <feColorMatrix values="0 0 0 0 0 0 0 0 0 0 0 0 0 0 0 0 0 0 0.2 0" in="shadowOffsetOuter1" result="shadowMatrixOuter1"/>
                        <feMerge>
                        <feMergeNode in="shadowMatrixOuter1"/>
                        <feMergeNode in="SourceGraphic"/>
                        </feMerge>
                    </filter>
                    </defs>
                    <g filter="url(#m)" transform="translate(6 7)" fill="#252C2F" fill-rule="nonzero">
                    <path d="M34 41h-2.76C17.31 41 9 33.34 9 20.5 9 10.13 10.82 0 32.53 0h2.94C57.18 0 59 10.13 59 20.5 59 32.57 48.72 41 34 41ZM32.39 6C13 6 13 12.84 13 21.5 13 28.57 16.12 37 30.97 37H34c12.36 0 21-6.37 21-15.5C55 12.84 55 6 35.61 6H32.4ZM96 41h-2.76C79.31 41 71 33.34 71 20.5 71 10.13 72.82 0 94.53 0h2.94C119.18 0 121 10.13 121 20.5 121 32.57 110.72 41 96 41ZM94.39 6C75 6 75 12.84 75 21.5 75 28.57 78.12 37 92.97 37H96c12.36 0 21-6.37 21-15.5C117 12.84 117 6 97.61 6H94.4Z"/>
                    <path d="M2.95 5.77C3.65 5.1 11.21 0 32.5 0c17.85 0 21.63 1.85 27.35 4.65l.42.2c.4.15 2.43.84 4.8.92a17 17 0 0 0 4.57-.87C76.17 1.72 82.56 0 97.5 0c21.29 0 28.85 5.1 29.55 5.77A2.92 2.92 0 0 1 130 8.66v2.88c0 1.6-1.32 2.89-2.95 2.89 0 0-6.9 0-6.9 2.88 0 2.89-1.97-4.17-1.97-5.77v-2.8c-3.6-1.39-10.05-3.95-20.68-3.95-11.84 0-17.74 2.1-22.8 4.18l.06.14v1.98l-2.22 5.35-2.74-1.08c-.24-.1-.77-.27-1.5-.45-2.04-.5-4.14-.66-6-.28-.68.14-1.3.35-1.89.64l-2.64 1.29-2.64-5.16.11-2.3.08-.2C50.96 6.88 46.94 4.8 32.5 4.8c-10.63 0-17.08 2.56-20.68 3.94v2.81c0 1.6-2.96 8.66-2.96 5.77 0-2.88-5.9-2.88-5.9-2.88A2.92 2.92 0 0 1 0 11.54V8.66c0-1.6 1.32-2.89 2.95-2.89Z"/>
                    </g>
                </g>
                </g>
            </g>
            </g>
        </g>
    </g>

    <g id="personalAvatarAlt" xmlns:xlink="http://www.w3.org/1999/xlink">
        <defs>
            <path d="M12 160c0 66.27 53.73 120 120 120 66.27 0 120-53.73 120-120h12V0H0v160h12Z" id="c"/>
            <path d="M124 144.61V163h4a72 72 0 0 1 72 72v9H0v-9a72 72 0 0 1 72-72h4v-18.39a56.04 56.04 0 0 1-31.7-44.73A12 12 0 0 1 34 88V74a12 12 0 0 1 10-11.83V56a56 56 0 1 1 112 0v6.17A12 12 0 0 1 166 74v14a12 12 0 0 1-10.3 11.88 56.04 56.04 0 0 1-31.7 44.73Z" id="e"/>
            <circle id="a" cx="120" cy="120" r="120"/>
        </defs>
        <g fill="none" fill-rule="evenodd">
            <g transform="translate(12 40)">
                <mask id="b" fill="#fff">
                <use xlink:href="#a"/>
                </mask>
                <use fill="#E6E6E6" xlink:href="#a"/>
                <g mask="url(#b)" fill="#65C9FF">
                <path d="M0 0h240v240H0z"/>
                </g>
            </g>
            <mask id="d" fill="#fff">
                <use xlink:href="#c"/>
            </mask>
            <g mask="url(#d)">
                <g transform="translate(32 36)">
                <mask id="f" fill="#fff">
                    <use xlink:href="#e"/>
                </mask>
                <use fill="#D0C6AC" xlink:href="#e"/>
                <g mask="url(#f)" fill="#EDB98A">
                    <path d="M0 0h264v280H0z"/>
                </g>
                <path d="M156 79v23a56 56 0 1 1-112 0V79v15a56 56 0 1 0 112 0V79Z" fill-opacity=".1" fill="#000" mask="url(#f)"/>
                </g>
                <g transform="translate(0 170)">
                <defs>
                    <path d="M165.96 29.3A72 72 0 0 1 232 101.04V110H32v-8.95a72 72 0 0 1 67.05-71.83c-.03.37-.05.75-.05 1.13 0 11.86 15 21.48 33.5 21.48S166 42.2 166 30.35c0-.36-.01-.7-.04-1.06Z" id="g"/>
                </defs>
                <mask id="h" fill="#fff">
                    <use xlink:href="#g"/>
                </mask>
                <use fill="#E6E6E6" xlink:href="#g"/>
                <g mask="url(#h)" fill="#929598">
                    <path d="M0 0h264v110H0z"/>
                </g>
                <g opacity=".6" mask="url(#h)" fill-opacity=".16" fill="#000">
                    <ellipse cx="40.5" cy="27.85" rx="39.64" ry="26.91" transform="translate(92 4)"/>
                </g>
                </g>
                <g fill="#000">
                <path d="M118 149a14 14 0 1 0 28 0" fill-opacity=".7"/>
                <path d="M120 130c0 4.42 5.37 8 12 8s12-3.58 12-8" fill-opacity=".16"/>
                <g fill-opacity=".6">
                    <path d="M92.16 112.45c1.85-3.8 6-6.45 10.84-6.45 4.81 0 8.96 2.63 10.82 6.4.55 1.13-.24 2.05-1.03 1.37a15.05 15.05 0 0 0-9.8-3.43c-3.73 0-7.12 1.24-9.55 3.23-.9.73-1.82-.01-1.28-1.12ZM150.16 112.45c1.85-3.8 6-6.45 10.84-6.45 4.81 0 8.96 2.63 10.82 6.4.55 1.13-.24 2.05-1.03 1.37a15.05 15.05 0 0 0-9.8-3.43c-3.73 0-7.12 1.24-9.55 3.23-.9.73-1.82-.01-1.28-1.12Z"/>
                </g>
                <g fill-opacity=".6">
                    <path d="m98.77 83.58.9-.4c5.25-2.09 13.2-1.21 18.05 1.12.57.27.18 1.15-.4 1.1-14.92-1.14-24.96 8.15-28.37 14.45-.1.18-.41.2-.49.03-2.3-5.32 4.45-13.98 10.3-16.3ZM165.23 83.58l-.9-.4c-5.25-2.09-13.2-1.21-18.05 1.12-.57.27-.18 1.15.4 1.1 14.92-1.14 24.96 8.15 28.37 14.45.1.18.41.2.49.03 2.3-5.32-4.45-13.98-10.3-16.3Z"/>
                </g>
                </g>
                <defs>
                <path id="i" d="M0 0h264v280H0z"/>
                <path d="M94.25 52.02c.12-.05-.18-.07-.91-.06.89 0 1.2.02.91.06M86.12 36.3c0-.02.01.15 0 0m107.65 34.47a62.9 62.9 0 0 0-1.52-9.86 51.7 51.7 0 0 0-2.49-7.49c-.6-1.48-2.03-3.52-2.2-5.13-.16-1.57 1.07-3.32 1.33-5.16.25-1.79.21-3.66-.16-5.44-.83-4.02-3.59-7.76-7.85-8.8-.95-.24-2.97.05-3.64-.5-.77-.64-1.3-2.8-2-3.68-2-2.47-5.1-4.07-8.37-3.51-2.42.4-1.03.9-2.84-.51-1-.8-1.75-2-2.73-2.85a24.72 24.72 0 0 0-4.9-3.28 50.81 50.81 0 0 0-14.84-4.91c-9.28-1.52-19.2-.2-28.2 2.22a74.58 74.58 0 0 0-13.14 4.74c-1.78.87-2.81 1.58-4.67 1.81-2.93.36-5.41.34-8.18 1.58-8.54 3.82-12.39 12.69-9.06 21.18.66 1.7 1.57 3.2 2.82 4.58 1.52 1.68 2.07 1.35.76 3.28a52.79 52.79 0 0 0-4.96 9.17c-3.53 8.4-4.12 17.87-3.89 26.83.08 3.13.22 6.31.71 9.42.22 1.34.28 3.87 1.29 4.87.5.5 1.24.79 1.96.58 1.71-.47 1.13-1.73 1.17-2.9.2-5.89-.07-11.1 1.32-16.9a44.4 44.4 0 0 1 5-12.04 72.07 72.07 0 0 1 9.8-13.35c.92-.99 1.12-1.4 2.35-1.48.93-.05 2.3.59 3.2.8 2 .5 4 .98 6.03 1.3 3.74.6 7.45.65 11.22.53 7.43-.23 14.88-.75 22.09-2.62 4.78-1.24 9.02-3.47 13.6-5.1.08-.04 1.23-.85 1.43-.82.28.04 1.97 1.82 2.26 2.05 2.23 1.74 4.67 2.48 7.07 3.83 2.96 1.66.1-.72 1.73 1.36.48.6.72 1.72 1.1 2.4 1.22 2.2 2.91 4.11 4.93 5.63 1.96 1.47 4.9 2.18 5.9 4.1.76 1.47 1.02 3.48 1.64 5.06 1.63 4.13 3.78 7.99 5.93 11.88 1.73 3.14 3.62 5.89 3.81 9.47.07 1.25-1.12 8.74 1.78 6.46.43-.34 1.35-4.15 1.54-4.8.77-2.63 1.05-5.38 1.4-8.09.69-5.38.92-10.5.47-15.91" id="k"/>
                </defs>
                <mask id="j" fill="#fff">
                <use xlink:href="#i"/>
                </mask>
                <g mask="url(#j)">
                <g transform="translate(-1)">
                    <mask id="l" fill="#fff">
                    <use xlink:href="#k"/>
                    </mask>
                    <use fill="#28354B" xlink:href="#k"/>
                    <g mask="url(#l)" fill="#2C1B18">
                    <path d="M0 0h264v280H0z"/>
                    </g>
                    <g transform="translate(62 85)">
                    <defs>
                        <filter x="-.8%" y="-2.4%" width="101.5%" height="109.8%" filterUnits="objectBoundingBox" id="m">
                        <feOffset dy="2" in="SourceAlpha" result="shadowOffsetOuter1"/>
                        <feColorMatrix values="0 0 0 0 0 0 0 0 0 0 0 0 0 0 0 0 0 0 0.2 0" in="shadowOffsetOuter1" result="shadowMatrixOuter1"/>
                        <feMerge>
                            <feMergeNode in="shadowMatrixOuter1"/>
                            <feMergeNode in="SourceGraphic"/>
                        </feMerge>
                        </filter>
                    </defs>
                    <g filter="url(#m)" transform="translate(6 7)" fill="#252C2F" fill-rule="nonzero">
                        <path d="M34 41h-2.76C17.31 41 9 33.34 9 20.5 9 10.13 10.82 0 32.53 0h2.94C57.18 0 59 10.13 59 20.5 59 32.57 48.72 41 34 41ZM32.39 6C13 6 13 12.84 13 21.5 13 28.57 16.12 37 30.97 37H34c12.36 0 21-6.37 21-15.5C55 12.84 55 6 35.61 6H32.4ZM96 41h-2.76C79.31 41 71 33.34 71 20.5 71 10.13 72.82 0 94.53 0h2.94C119.18 0 121 10.13 121 20.5 121 32.57 110.72 41 96 41ZM94.39 6C75 6 75 12.84 75 21.5 75 28.57 78.12 37 92.97 37H96c12.36 0 21-6.37 21-15.5C117 12.84 117 6 97.61 6H94.4Z"/>
                        <path d="M2.95 5.77C3.65 5.1 11.21 0 32.5 0c17.85 0 21.63 1.85 27.35 4.65l.42.2c.4.15 2.43.84 4.8.92a17 17 0 0 0 4.57-.87C76.17 1.72 82.56 0 97.5 0c21.29 0 28.85 5.1 29.55 5.77A2.92 2.92 0 0 1 130 8.66v2.88c0 1.6-1.32 2.89-2.95 2.89 0 0-6.9 0-6.9 2.88 0 2.89-1.97-4.17-1.97-5.77v-2.8c-3.6-1.39-10.05-3.95-20.68-3.95-11.84 0-17.74 2.1-22.8 4.18l.06.14v1.98l-2.22 5.35-2.74-1.08c-.24-.1-.77-.27-1.5-.45-2.04-.5-4.14-.66-6-.28-.68.14-1.3.35-1.89.64l-2.64 1.29-2.64-5.16.11-2.3.08-.2C50.96 6.88 46.94 4.8 32.5 4.8c-10.63 0-17.08 2.56-20.68 3.94v2.81c0 1.6-2.96 8.66-2.96 5.77 0-2.88-5.9-2.88-5.9-2.88A2.92 2.92 0 0 1 0 11.54V8.66c0-1.6 1.32-2.89 2.95-2.89Z"/>
                    </g>
                    </g>
                </g>
                </g>
            </g>
        </g>
    </g>

    <g id="lineFacebook" viewBox="0 0 24 24">
        <path fill="none" d="M0 0h24v24H0z"/>
        <path d="M13 19.94A8 8 0 0 0 12 4a8 8 0 0 0-1 15.94V14H9v-2h2v-1.65c0-1.34.14-1.83.4-2.31a2.73 2.73 0 0 1 1.14-1.14c.38-.2.85-.33 1.68-.38.33-.02.76 0 1.28.08v1.9H15c-.92 0-1.3.04-1.52.16a.73.73 0 0 0-.32.32c-.12.22-.16.45-.16 1.36V12h2.5l-.5 2h-2v5.94zM12 22a10 10 0 1 1 0-20 10 10 0 0 1 0 20z"/>
    </g>

    <g id="lineLinkedin" viewBox="0 0 24 24">
        <path fill="none" d="M0 0h24v24H0z"/>
        <path d="M4 3h16a1 1 0 0 1 1 1v16a1 1 0 0 1-1 1H4a1 1 0 0 1-1-1V4a1 1 0 0 1 1-1zm1 2v14h14V5H5zm2.5 4a1.5 1.5 0 1 1 0-3 1.5 1.5 0 0 1 0 3zm-1 1h2v7.5h-2V10zm5.5.43a2.92 2.92 0 0 1 2-.93c2.07 0 3.5 1.68 3.5 3.75v4.25h-2v-4.25a1.75 1.75 0 0 0-3.5 0v4.25h-2V10h2v.43z"/>
    </g>



    <g id="lineGithub" viewBox="0 0 24 24">
        <path fill="none" d="M0 0h24v24H0z"/>
        <path d="M5.88 18.65c-.3-.2-.55-.45-.86-.81a50.32 50.32 0 0 1-.46-.58c-.47-.58-.76-.84-1.06-.95a1 1 0 0 1 .68-1.88c.75.27 1.26.73 1.94 1.58l.44.54c.19.23.33.37.44.44.2.14.58.2 1.15.14.02-.38.09-.75.2-1.1-2.97-.72-4.65-2.63-4.65-6.39 0-1.24.37-2.36 1.06-3.3-.22-.89-.19-1.97.3-3.18a1 1 0 0 1 .63-.59l.2-.04c.81-.13 1.95.17 3.42 1.1A11.73 11.73 0 0 1 12 3.31c.91 0 1.82.1 2.68.3 1.48-.93 2.62-1.22 3.43-1.1l.21.06a1 1 0 0 1 .62.58c.49 1.21.52 2.3.3 3.19.7.93 1.06 2.04 1.06 3.29 0 3.76-1.67 5.67-4.64 6.4.12.4.19.87.19 1.37a300.5 300.5 0 0 1-.01 2.72 1 1 0 0 1-.02 1.96c-1.14.22-1.99-.54-1.99-1.53v-.44l.01-.71v-2c0-.7-.17-1.15-.42-1.36a1 1 0 0 1 .54-1.75c2.97-.33 4.34-1.48 4.34-4.66 0-.96-.31-1.74-.91-2.4a1 1 0 0 1-.2-1.05c.17-.41.24-.96.1-1.61-.5.14-1.12.44-1.87.95a1 1 0 0 1-.83.13A9.63 9.63 0 0 0 12 5.32c-.89 0-1.77.11-2.6.35a1 1 0 0 1-.82-.14c-.75-.5-1.38-.8-1.87-.95-.14.66-.07 1.2.1 1.61a1 1 0 0 1-.2 1.05c-.6.65-.91 1.45-.91 2.4 0 3.17 1.37 4.33 4.32 4.66a1 1 0 0 1 .55 1.75c-.2.17-.43.73-.43 1.36v3.15c0 .99-.84 1.73-1.96 1.53a1 1 0 0 1-.04-1.96v-1a3.52 3.52 0 0 1-2.26-.48z"/>
    </g>

    <g id="lineEmail" viewBox="0 0 24 24">
        <path fill="none" d="M0 0h24v24H0z"/>
        <path d="M3 3h18a1 1 0 0 1 1 1v16a1 1 0 0 1-1 1H3a1 1 0 0 1-1-1V4a1 1 0 0 1 1-1zm17 4.24-7.93 7.1L4 7.22V19h16V7.24zM4.51 5l7.55 6.66L19.5 5H4.51z"/>
    </g>

    <g id="chevronLeft" fill="none" stroke="currentColor" stroke-width="2" stroke-linecap="round" stroke-linejoin="round" class="feather feather-chevron-left" viewBox="0 0 24 24">
        <path d="m15 18-6-6 6-6"/>
    </g>

    <g id="chevronLeft" fill="none" stroke="currentColor" stroke-width="2" stroke-linecap="round" stroke-linejoin="round" class="feather feather-chevron-right" viewBox="0 0 24 24">
        <path d="m9 18 6-6-6-6"/>
    </g>

    <g id="gift" fill="none" stroke="currentColor" stroke-width="2" stroke-linecap="round" stroke-linejoin="round" class="feather feather-gift" viewBox="0 0 24 24">
        <path d="M20 12v10H4V12M2 7h20v5H2zM12 22V7M12 7H7.5a2.5 2.5 0 0 1 0-5C11 2 12 7 12 7zM12 7h4.5a2.5 2.5 0 0 0 0-5C13 2 12 7 12 7z"/>
    </g>

    <g id="quote" viewBox="0 0 24 24">
        <path d="M9.983 3v7.391c0 5.704-3.731 9.57-8.983 10.609l-.995-2.151c2.432-.917 3.995-3.638 3.995-5.849h-4v-10h9.983zm14.017 0v7.391c0 5.704-3.748 9.571-9 10.609l-.996-2.151c2.433-.917 3.996-3.638 3.996-5.849h-3.983v-10h9.983z" fill="currentColor"/>
    </g>

    <g id="close" fill="none" stroke="currentColor" stroke-width="2" stroke-linecap="round" stroke-linejoin="round" class="feather feather-x" viewBox="0 0 24 24">
        <path d="M18 6 6 18M6 6l12 12"/>
    </g>



    <g id="bar" viewBox="0 0 24 24">
        <rect width="100%" height="100%" rx="2" ry="2" />
    </g>

</svg>